<svg width="205.817" height="25" viewBox="0 0 205.817 25" xmlns="http://www.w3.org/2000/svg"><path d="m2.549 17.19-.882-2.647q-.294-.85-.588-1.748l-.282-.87-.258-.813a33 33 0 0 1-.17-.56q-.13-.444-.222-.812Q0 9.15 0 8.954a3 3 0 0 1 .07-.618l.028-.117q.046-.178.13-.272a.29.29 0 0 1 .23-.104l.08.006q.041.007.073.02a.2.2 0 0 1 .076.056q.037.046.073.066a.1.1 0 0 0 .058.015l.392-.163a.2.2 0 0 1 .09.022q.169.074.482.386a11 11 0 0 1 .325.341q.285.312.623.721.539.654 1.16 1.471t1.258 1.601 1.209 1.471a14 14 0 0 0 .396.456q.191.209.368.38a6 6 0 0 0 .265.243q.719.654 1.438 1.242t1.454 1.193l.755.625.797.666q.817.686 1.797 1.569.033.033.163.033.062 0 .065-.145v-.41a3 3 0 0 0-.015-.264q-.043-.435-.21-1.215l-.037-.171a29 29 0 0 0-.226-.95q-.134-.524-.299-1.106a55 55 0 0 0-.21-.722 82 82 0 0 0-.51-1.642 102 102 0 0 0-.584-1.757q-.621-1.814-1.324-3.497a33 33 0 0 0-.857-1.889 26 26 0 0 0-.613-1.167 15 15 0 0 0-.522-.87q-.493-.761-.965-1.254a1 1 0 0 1-.149-.207q-.083-.16-.129-.382a5 5 0 0 1-.046-.254q-.036-.228-.036-.4 0-.206.252-.452l.059-.055q.185-.165.353-.233a.6.6 0 0 1 .219-.045h.012q.387.012.87.784a12 12 0 0 1 .373.648q.182.339.372.738a25 25 0 0 1 .301.656 40 40 0 0 1 .559 1.336 54 54 0 0 1 .568 1.491q.572 1.569 1.127 3.17.654 1.895 1.225 3.742t1.013 3.448q.412 1.495.681 2.705l.037.171a32 32 0 0 1 .126.603q.129.652.187 1.121a8 8 0 0 1 .03.27.7.7 0 0 1-.152.436 1 1 0 0 1-.142.152 1 1 0 0 1-.29.187 1 1 0 0 1-.363.074l-.039-.006q-.04-.011-.097-.041l-.06-.035-.075-.049q-.071-.05-.115-.092l-.006-.006q-1.373-1.307-2.908-2.582t-3.105-2.614-3.088-2.81-2.859-3.203a32 32 0 0 0 .608 2.17 39 39 0 0 0 .535 1.572 214 214 0 0 0 .706 1.916 178 178 0 0 0 .682 1.794q.46 1.191.836 2.158l.324.832a25 25 0 0 1 .166.439q.24.652.302.966a1 1 0 0 1 .022.18.8.8 0 0 1-.078.356q-.078.16-.233.282a1.3 1.3 0 0 1-.25.157.9.9 0 0 1-.387.088q-.19 0-.412-.385l-.012-.023q-.229-.408-.507-1.062t-.556-1.454-.539-1.601l-.49-1.503-.109-.336q-.132-.413-.222-.725zm103.333.327.556-.85.606-.937.455-.713.41-.654a14 14 0 0 0 .687-1.233 12 12 0 0 0 .326-.728q.392-.964.572-1.977.155-.871.176-1.983l.004-.37a4 4 0 0 0-.024-.412 5 5 0 0 0-.058-.372 3 3 0 0 0-.145-.51 3 3 0 0 0-.116-.258 2 2 0 0 0-.256-.384 2 2 0 0 0-.186-.188q-.261-.229-.654-.229-.523 0-1.585.294a15 15 0 0 0-1.621.552 18 18 0 0 0-.553.233q-1.111.49-2.026 1.095-.842.557-1.076 1.126a1 1 0 0 0-.036.099q-.032.064-.095.16l-.003.004q-.053.079-.106.094l-.025.004q-.229 0-.49-.359a2 2 0 0 1-.126-.194q-.119-.21-.134-.381l-.002-.046a1.44 1.44 0 0 1 .175-.669q.104-.195.268-.386l.08-.088q.523-.556 1.324-1.013a13 13 0 0 1 1.071-.54 14 14 0 0 1 .71-.293 20 20 0 0 1 1.317-.455 17 17 0 0 1 .579-.166q.854-.229 1.552-.372l.098-.02a14 14 0 0 1 .342-.064q.319-.056.534-.074a2 2 0 0 1 .186-.009 1.8 1.8 0 0 1 .937.259l.06.036a2.6 2.6 0 0 1 .78.754l.02.031q.327.49.523 1.144t.196 1.373a15 15 0 0 1-.097 1.759q-.125 1.066-.409 1.967-.507 1.601-1.144 2.827t-1.242 2.19q-.562.897-.771 1.722l-.03.124q-.163.588-.719.588l-.035-.001q-.034-.003-.056-.012l-.008-.004q-.03-.014-.086-.016h-.012a6 6 0 0 0 .224.476q.19.365.462.782.458.703.915 1.422a16 16 0 0 1 .575.973 14 14 0 0 1 .226.433 5 5 0 0 1 .181.409q.08.211.12.401a2 2 0 0 1 .042.366.44.44 0 0 1-.07.233q-.084.138-.27.272l-.003.002q-.341.244-.602.245h-.003a.18.18 0 0 1-.147-.075q-.022-.028-.04-.067l-.009-.021q-.283-1.018-.981-2.158a14 14 0 0 0-.228-.359q-.882-1.34-1.814-3.007a21 21 0 0 1-1.056-2.189 27 27 0 0 1-.594-1.57 13 13 0 0 1-.591-2.604 17 17 0 0 1-.128-2.135q0-1.111.114-1.879.053-.358.203-.549a.56.56 0 0 1 .467-.219q.205 0 .333.077a.4.4 0 0 1 .125.119q.131.196.131.425 0 2.974.556 5.229a24 24 0 0 0 .36 1.31q.392 1.277.842 2.115zm60.882 2.696.021-.044q.044-.116.044-.332 0-.104-.027-.181a.3.3 0 0 0-.104-.146q-.131-.098-.294-.098h-.013q-.088.002-.351.022l-.142.011-.575.047-.406.035q-.572.049-1.225.082a28 28 0 0 1-.629.025 21 21 0 0 1-.581.008q-.621 0-1.258-.147a6 6 0 0 1-.459-.126 5 5 0 0 1-.684-.283 3 3 0 0 1-.212-.121 2.3 2.3 0 0 1-.605-.549q-.31-.408-.31-.964a8 8 0 0 1 .035-.751 6.5 6.5 0 0 1 .521-2.043 14 14 0 0 1 .511-1.038 11 11 0 0 1 .73-1.151 21 21 0 0 1 .416-.547q.444-.563.826-.956.556-.572.556-.768 0-.229-.245-.392a.7.7 0 0 0-.126-.063q-.256-.1-.74-.1a.9.9 0 0 0-.293.052q-.26.091-.54.34-.248.221-.496.513a8 8 0 0 0-.386.5 12 12 0 0 0-.326.486 14 14 0 0 0-.524.903l-.205.393a26 26 0 0 0-.531 1.094q-.327.719-.523 1.34l-.062.201q-.092.314-.136.54a3 3 0 0 0-.032.207 6 6 0 0 1-.096-.214q-.208-.49-.394-1.142l-.112-.406a30 30 0 0 1-.312-1.277q-.196-.882-.376-1.748a76 76 0 0 1-.167-.829 57 57 0 0 1-.143-.755l-.001-.011q-.01-.073-.113-.561-.114-.539-.261-1.144a14 14 0 0 0-.125-.475 11 11 0 0 0-.202-.636q-.18-.507-.343-.507-.261 0-.408.212l-.01.014q-.075.111-.132.247a2 2 0 0 0-.087.261q-.082.31-.098.637l-.007.146q-.007.153-.009.271l-.001.106v.014q.003.428.196 1.44.196 1.029.523 2.353t.719 2.778.752 2.729q.229.784.392 1.438l.31 1.242q.147.588.343 1.16t.49 1.225l.008.02q.096.244.237.323.147.082.31.082h.047q.218-.006.322-.057a.2.2 0 0 0 .072-.058q.082-.114.082-.278-.065-.686-.196-1.373t-.294-1.373a1.2 1.2 0 0 0 .192.171q.111.08.254.15a3 3 0 0 0 .289.12q.507.18 1.127.327l.005.001a10 10 0 0 0 1.286.211 14 14 0 0 0 .636.049q.309.016.589.016a6 6 0 0 0 .447-.018 8 8 0 0 0 .55-.063q.539-.082 1.062-.196a30 30 0 0 0 .503-.114 23 23 0 0 0 .461-.114q.441-.114.735-.212l.082-.023q.116-.037.182-.087a.3.3 0 0 0 .063-.069Zm13.007 0 .021-.044q.044-.116.044-.332 0-.104-.027-.181a.3.3 0 0 0-.104-.146q-.131-.098-.294-.098h-.013q-.088.002-.351.022l-.142.011-.575.047-.406.035q-.572.049-1.225.082a28 28 0 0 1-.629.025 21 21 0 0 1-.581.008q-.621 0-1.258-.147a6 6 0 0 1-.459-.126 5 5 0 0 1-.684-.283 3 3 0 0 1-.212-.121 2.3 2.3 0 0 1-.605-.549q-.31-.408-.31-.964a8 8 0 0 1 .035-.751 6.5 6.5 0 0 1 .521-2.043 14 14 0 0 1 .511-1.038 11 11 0 0 1 .73-1.151 21 21 0 0 1 .416-.547q.444-.563.826-.956.556-.572.556-.768 0-.229-.245-.392a.7.7 0 0 0-.126-.063q-.256-.1-.74-.1a.9.9 0 0 0-.293.052q-.26.091-.54.34-.248.221-.496.513a8 8 0 0 0-.386.5 12 12 0 0 0-.326.486 14 14 0 0 0-.524.903l-.205.393a26 26 0 0 0-.531 1.094q-.327.719-.523 1.34l-.062.201q-.092.314-.136.54a3 3 0 0 0-.032.207 6 6 0 0 1-.096-.214q-.208-.49-.394-1.142l-.112-.406a30 30 0 0 1-.312-1.277q-.196-.882-.376-1.748a76 76 0 0 1-.167-.829 57 57 0 0 1-.143-.755l-.001-.011q-.01-.073-.113-.561-.114-.539-.261-1.144a14 14 0 0 0-.125-.475 11 11 0 0 0-.202-.636q-.18-.507-.343-.507-.261 0-.408.212l-.01.014q-.075.111-.132.247a2 2 0 0 0-.087.261q-.082.31-.098.637l-.007.146q-.007.153-.009.271l-.001.106v.014q.003.428.196 1.44.196 1.029.523 2.353t.719 2.778.752 2.729q.229.784.392 1.438l.31 1.242q.147.588.343 1.16t.49 1.225l.008.02q.096.244.237.323.147.082.31.082h.047q.218-.006.322-.057a.2.2 0 0 0 .072-.058q.082-.114.082-.278-.065-.686-.196-1.373t-.294-1.373a1.2 1.2 0 0 0 .192.171q.111.08.254.15a3 3 0 0 0 .289.12q.507.18 1.127.327l.005.001a10 10 0 0 0 1.286.211 14 14 0 0 0 .636.049q.309.016.589.016a6 6 0 0 0 .447-.018 8 8 0 0 0 .55-.063q.539-.082 1.062-.196a30 30 0 0 0 .503-.114 23 23 0 0 0 .461-.114q.441-.114.735-.212l.082-.023q.116-.037.182-.087a.3.3 0 0 0 .063-.069ZM131.229 8.958a4 4 0 0 0 .405-.396 1 1 0 0 1-.058-.099 1 1 0 0 1-.057-.13.2.2 0 0 0-.078-.093q-.062-.037-.167-.037a.2.2 0 0 0-.047.008q-.132.033-.537.205l-.151.065q-.637.278-1.422.637a80 80 0 0 1-.768.347 69 69 0 0 1-.735.323l-.049.021q-.681.291-.964.355-.294-.85-.605-2.222l-.088-.394q-.134-.602-.277-1.275a186 186 0 0 1-.305-1.469 1 1 0 0 0-.031-.123q-.033-.102-.08-.176a.38.38 0 0 0-.347-.191.5.5 0 0 0-.281.092.7.7 0 0 0-.128.12.7.7 0 0 0-.11.188q-.037.096-.055.215a2 2 0 0 0-.015.234v.01q.009.104.147.905l.151.891.16.972.057.337q.181 1.051.433 2.342l-.539.261q-.539.261-1.34.654t-1.732.882-1.732.948q-.501.286-.899.54a14 14 0 0 0-.441.293l-.136.099q-.285.214-.368.361a.23.23 0 0 0-.035.111 1 1 0 0 0 .074.363 1 1 0 0 0 .187.29.9.9 0 0 0 .357.242 1 1 0 0 0 .33.052q.08 0 .408-.184l.164-.094.313-.186q.364-.219.814-.5.654-.408 1.405-.882t1.438-.882q.386-.23.726-.418a18 18 0 0 1 .5-.268q.405-.209.634-.26a.6.6 0 0 1 .134-.017q.033 0 .163.458.294 1.078.523 1.993.196.784.392 1.536t.261 1.111q.141.846.181 1.404a6 6 0 0 1 .015.393q0 .163-.016.294l-.007.056-.009.098-.001.042q0 .098.065.294t.196.408l.041.065a2 2 0 0 0 .253.31 1 1 0 0 0 .089.075.5.5 0 0 0 .27.088.42.42 0 0 0 .321-.141q.065-.069.117-.171a1.4 1.4 0 0 0 .085-.21 4 4 0 0 0 .079-.291 3.3 3.3 0 0 0 .085-.722q0-.029-.05-.345l-.015-.096-.079-.496-.068-.435q-.082-.523-.18-1.046t-.163-.85l-.038-.16q-.059-.244-.13-.517a47 47 0 0 0-.159-.598q-.196-.719-.376-1.389l-.108-.401-.098-.366-.105-.393-.035-.134q-.075-.289-.091-.404l-.005-.051a.06.06 0 0 1 .012-.032q.058-.086.391-.254l.185-.09.386-.185q.204-.098.426-.208l.56-.278q.784-.392 1.569-.866.465-.282.804-.568Zm10.425 0a4 4 0 0 0 .405-.396 1 1 0 0 1-.058-.099 1 1 0 0 1-.057-.13.2.2 0 0 0-.078-.093q-.062-.037-.167-.037a.2.2 0 0 0-.047.008q-.132.033-.537.205l-.151.065q-.637.278-1.422.637a80 80 0 0 1-.768.347 69 69 0 0 1-.735.323l-.049.021q-.681.291-.964.355-.294-.85-.605-2.222l-.088-.394q-.134-.602-.277-1.275a186 186 0 0 1-.305-1.469 1 1 0 0 0-.031-.123q-.033-.102-.08-.176a.38.38 0 0 0-.347-.191.5.5 0 0 0-.281.092.7.7 0 0 0-.128.12.7.7 0 0 0-.11.188q-.037.096-.055.215a2 2 0 0 0-.015.234v.01q.009.104.147.905l.151.891.16.972.057.337q.181 1.051.433 2.342l-.539.261q-.539.261-1.34.654t-1.732.882-1.732.948q-.501.286-.899.54a14 14 0 0 0-.441.293l-.136.099q-.285.214-.368.361a.23.23 0 0 0-.035.111 1 1 0 0 0 .074.363 1 1 0 0 0 .187.29.9.9 0 0 0 .357.242 1 1 0 0 0 .33.052q.08 0 .408-.184l.164-.094.313-.186q.364-.219.814-.5.654-.408 1.405-.882t1.438-.882q.386-.23.726-.418a18 18 0 0 1 .5-.268q.405-.209.634-.26a.6.6 0 0 1 .134-.017q.033 0 .163.458.294 1.078.523 1.993.196.784.392 1.536t.261 1.111q.141.846.181 1.404a6 6 0 0 1 .015.393q0 .163-.016.294l-.007.056-.009.098-.001.042q0 .098.065.294t.196.408l.041.065a2 2 0 0 0 .253.31 1 1 0 0 0 .089.075.5.5 0 0 0 .27.088.42.42 0 0 0 .321-.141q.065-.069.117-.171a1.4 1.4 0 0 0 .085-.21 4 4 0 0 0 .079-.291 3.3 3.3 0 0 0 .085-.722q0-.029-.05-.345l-.015-.096-.079-.496-.068-.435q-.082-.523-.18-1.046t-.163-.85l-.038-.16q-.059-.244-.13-.517a47 47 0 0 0-.159-.598q-.196-.719-.376-1.389l-.108-.401-.098-.366-.105-.393-.035-.134q-.075-.289-.091-.404l-.005-.051a.06.06 0 0 1 .012-.032q.058-.086.391-.254l.185-.09.386-.185q.204-.098.426-.208l.56-.278q.784-.392 1.569-.866.465-.282.804-.568Zm63.758 0a4 4 0 0 0 .405-.396 1 1 0 0 1-.058-.099 1 1 0 0 1-.057-.13.2.2 0 0 0-.078-.093q-.062-.037-.167-.037a.2.2 0 0 0-.047.008q-.132.033-.537.205l-.151.065q-.637.278-1.422.637a80 80 0 0 1-.768.347 69 69 0 0 1-.735.323l-.049.021q-.681.291-.964.355-.294-.85-.605-2.222l-.088-.394q-.134-.602-.277-1.275a186 186 0 0 1-.305-1.469 1 1 0 0 0-.031-.123q-.033-.102-.08-.176a.38.38 0 0 0-.347-.191.5.5 0 0 0-.281.092.7.7 0 0 0-.128.12.7.7 0 0 0-.11.188q-.037.096-.055.215a2 2 0 0 0-.015.234v.01q.009.104.147.905l.151.891.16.972.057.337q.181 1.051.433 2.342l-.539.261q-.539.261-1.34.654t-1.732.882-1.732.948q-.501.286-.899.54a14 14 0 0 0-.441.293l-.136.099q-.285.214-.368.361a.23.23 0 0 0-.035.111 1 1 0 0 0 .074.363 1 1 0 0 0 .187.29.9.9 0 0 0 .357.242 1 1 0 0 0 .33.052q.08 0 .408-.184l.164-.094.313-.186q.364-.219.814-.5.654-.408 1.405-.882t1.438-.882q.386-.23.726-.418a18 18 0 0 1 .5-.268q.405-.209.634-.26a.6.6 0 0 1 .134-.017q.033 0 .163.458.294 1.078.523 1.993.196.784.392 1.536t.261 1.111q.141.846.181 1.404a6 6 0 0 1 .015.393q0 .163-.016.294l-.007.056-.009.098-.001.042q0 .098.065.294t.196.408l.041.065a2 2 0 0 0 .253.31 1 1 0 0 0 .089.075.5.5 0 0 0 .27.088.42.42 0 0 0 .321-.141q.065-.069.117-.171a1.4 1.4 0 0 0 .085-.21 4 4 0 0 0 .079-.291 3.3 3.3 0 0 0 .085-.722q0-.029-.05-.345l-.015-.096-.079-.496-.068-.435q-.082-.523-.18-1.046t-.163-.85l-.038-.16q-.059-.244-.13-.517a47 47 0 0 0-.159-.598q-.196-.719-.376-1.389l-.108-.401-.098-.366-.105-.393-.035-.134q-.075-.289-.091-.404l-.005-.051a.06.06 0 0 1 .012-.032q.058-.086.391-.254l.185-.09.386-.185q.204-.098.426-.208l.56-.278q.784-.392 1.569-.866.465-.282.804-.568ZM74.03 18.265a.4.4 0 0 0 .055-.193.33.33 0 0 0-.142-.165.5.5 0 0 0-.119-.047l-.051-.014q-.057-.019-.101-.047a.3.3 0 0 1-.11-.118l-.012-.019q-.225-.367-.511-1.37l-.083-.296q-.253-.922-.506-2.073l-.146-.677a108 108 0 0 1-.426-2.117 54 54 0 0 1-.249-1.401 42 42 0 0 1-.192-1.295q-.065-.458-.229-1.438t-.327-2.059-.327-1.993l-.055-.309q-.114-.664-.141-.932-.098-.621-.212-.964l-.022-.064q-.105-.294-.223-.442-.052-.064-.109-.109a.44.44 0 0 0-.186-.087 2 2 0 0 0-.152-.022A2 2 0 0 0 69.248 0a.46.46 0 0 0-.304.109.7.7 0 0 0-.121.136q-.163.245-.163.408 0 .058.112.439l.035.116.245.817.01.046q.028.153.056.542.033.458.065 1.013t.065 1.062l.012.169q.027.372.054.533v.006q.002.086.054.402l.028.164.056.317.065.359.091.484.017.092q.123.652.26 1.46.147.866.31 1.748l.001.004q.359 2.058.816 4.604l-.31-.376a7 7 0 0 0-.156-.181q-.137-.154-.303-.321a13 13 0 0 0-.342-.332 7 7 0 0 0-.261-.232 8 8 0 0 0-.85-.618 3 3 0 0 0-.427-.223 2.1 2.1 0 0 0-.815-.169q-.654 0-1.144.327a3 3 0 0 0-.235.177 2.8 2.8 0 0 0-.582.689 4 4 0 0 0-.258.503 5 5 0 0 0-.249.739 6 6 0 0 0-.07.311 6 6 0 0 0-.11 1.176q0 .85.212 1.683a6 6 0 0 0 .087.307 4.6 4.6 0 0 0 .566 1.18q.441.654 1.127 1.062a3 3 0 0 0 .745.307 3.5 3.5 0 0 0 .856.102q.674 0 1.201-.07a5 5 0 0 0 .58-.11q.703-.18 1.111-.392.287-.149.461-.275a2 2 0 0 0 .127-.101l.003-.003q.147-.134.172-.134l.004.002.001.004a2 2 0 0 0 .092.187 1.5 1.5 0 0 0 .136.205 2 2 0 0 0 .085.122q.181.237.34.237l.136-.027q.166-.037.274-.077a1 1 0 0 0 .096-.043q.108-.06.313-.076a2 2 0 0 1 .161-.006.22.22 0 0 0 .144-.047q.085-.067.108-.234a1 1 0 0 0 .01-.144l-.001-.063q-.004-.193-.036-.361a1.6 1.6 0 0 0-.111-.359q-.147-.327-.147-.686.019-.098.081-.19a1 1 0 0 1 .099-.12l.014-.014q.047-.051.078-.103Zm-23 1.684a.3.3 0 0 0-.017-.047.3.3 0 0 0-.027-.058q-.02-.037-.053-.072a1 1 0 0 0-.067-.066q-.066-.057-.127-.081a.2.2 0 0 0-.086-.017q-.08 0-.343.14l-.131.072q-.211.119-.464.249a19 19 0 0 1-.418.209l-.258.12a13 13 0 0 1-.821.337l-.017.007q-.562.206-1.045.206-.686 0-1.34-.261t-1.144-.735a4 4 0 0 1-.329-.368 4 4 0 0 1-.472-.792q-.31-.686-.31-1.536a8 8 0 0 1 .021-.558 6 6 0 0 1 .24-1.321 8 8 0 0 1 .263-.738 6 6 0 0 1 .39-.765q.214-.349.438-.619a4 4 0 0 1 .379-.394q.272-.24.504-.327a.7.7 0 0 1 .248-.049h.01q.482.001.711.121a.4.4 0 0 1 .161.14q.163.261.163.327a1 1 0 0 1-.008.142.93.93 0 0 1-.401.675l-.064.045a5 5 0 0 1-.834.461 7 7 0 0 0-.24.11 6 6 0 0 0-.658.364 1 1 0 0 0-.131.098.79.79 0 0 0-.278.621 1 1 0 0 0 .006.099.64.64 0 0 0 .141.342 1 1 0 0 0 .074.077.4.4 0 0 0 .269.103 1 1 0 0 0 .106-.006q.341-.034.875-.272a7 7 0 0 0 .427-.21 8 8 0 0 0 .815-.508 7 7 0 0 0 .335-.255 5.5 5.5 0 0 0 .727-.709 3 3 0 0 0 .136-.176q.127-.18.201-.355a1.3 1.3 0 0 0 .104-.483 1.4 1.4 0 0 0-.069-.433 1.7 1.7 0 0 0-.192-.4 2.5 2.5 0 0 0-.247-.324 3 3 0 0 0-.456-.411l-.028-.02a4.3 4.3 0 0 0-.953-.519 4 4 0 0 0-.252-.087 2.8 2.8 0 0 0-.81-.125 1.4 1.4 0 0 0-.28.027q-.25.049-.507.185a3 3 0 0 0-.423.279l-.065.053q-.582.483-1.062 1.287a8 8 0 0 0-.415.808 10 10 0 0 0-.418 1.152 8 8 0 0 0-.172.71 8.7 8.7 0 0 0-.155 1.675l.001.166q.021 1.236.359 2.17.359.997.915 1.667t1.275 1.013l.051.024a3.4 3.4 0 0 0 1.42.319l.212-.002q.454-.011.855-.062a6 6 0 0 0 .811-.164l.22-.065q.324-.101.603-.212a6 6 0 0 0 .533-.245 7 7 0 0 0 .258-.143q.378-.223.625-.445.248-.223.364-.352a1 1 0 0 0 .061-.073l.019-.025q.199-.271.254-.445a.4.4 0 0 0 .021-.118q0-.089-.015-.149Zm101.895 0a.3.3 0 0 0-.017-.047.3.3 0 0 0-.027-.058q-.02-.037-.053-.072a1 1 0 0 0-.067-.066q-.066-.057-.127-.081a.2.2 0 0 0-.086-.017q-.08 0-.343.14l-.131.072q-.211.119-.464.249a19 19 0 0 1-.418.209l-.258.12a13 13 0 0 1-.821.337l-.017.007q-.562.206-1.045.206-.686 0-1.34-.261t-1.144-.735a4 4 0 0 1-.329-.368 4 4 0 0 1-.472-.792q-.31-.686-.31-1.536a8 8 0 0 1 .021-.558 6 6 0 0 1 .24-1.321 8 8 0 0 1 .263-.738 6 6 0 0 1 .39-.765q.214-.349.438-.619a4 4 0 0 1 .379-.394q.272-.24.504-.327a.7.7 0 0 1 .248-.049h.01q.482.001.711.121a.4.4 0 0 1 .161.14q.163.261.163.327a1 1 0 0 1-.008.142.93.93 0 0 1-.401.675l-.064.045a5 5 0 0 1-.834.461 7 7 0 0 0-.24.11 6 6 0 0 0-.658.364 1 1 0 0 0-.131.098.79.79 0 0 0-.278.621 1 1 0 0 0 .006.099.64.64 0 0 0 .141.342 1 1 0 0 0 .074.077.4.4 0 0 0 .269.103 1 1 0 0 0 .106-.006q.341-.034.875-.272a7 7 0 0 0 .427-.21 8 8 0 0 0 .815-.508 7 7 0 0 0 .335-.255 5.5 5.5 0 0 0 .727-.709 3 3 0 0 0 .136-.176q.127-.18.201-.355a1.3 1.3 0 0 0 .104-.483 1.4 1.4 0 0 0-.069-.433 1.7 1.7 0 0 0-.192-.4 2.5 2.5 0 0 0-.247-.324 3 3 0 0 0-.456-.411l-.028-.02a4.3 4.3 0 0 0-.953-.519 4 4 0 0 0-.252-.087 2.8 2.8 0 0 0-.81-.125 1.4 1.4 0 0 0-.28.027q-.25.049-.507.185a3 3 0 0 0-.423.279l-.065.053q-.582.483-1.062 1.287a8 8 0 0 0-.415.808 10 10 0 0 0-.418 1.152 8 8 0 0 0-.172.71 8.7 8.7 0 0 0-.155 1.675l.001.166q.021 1.236.359 2.17.359.997.915 1.667t1.275 1.013l.051.024a3.4 3.4 0 0 0 1.42.319l.212-.002q.454-.011.855-.062a6 6 0 0 0 .811-.164l.22-.065q.324-.101.603-.212a6 6 0 0 0 .533-.245 7 7 0 0 0 .258-.143q.378-.223.625-.445.248-.223.364-.352a1 1 0 0 0 .061-.073l.019-.025q.199-.271.254-.445a.4.4 0 0 0 .021-.118q0-.089-.015-.149Zm-98.121-7.367v5.163l.004.109q.009.109.031.256l.014.093a2 2 0 0 0 .032.153q.045.178.115.272a12 12 0 0 0 .326-.796q.135-.365.26-.774l.084-.277a187 187 0 0 1 .457-1.538l.148-.488q.225-.738.451-1.303a11 11 0 0 1 .137-.331q.27-.614.539-.665a.3.3 0 0 1 .049-.005 1.4 1.4 0 0 1 .21.015q.112.018.204.057a1 1 0 0 1 .11.059q.196.131.327.523a56 56 0 0 1 .131.789q.076.481.131.894a14 14 0 0 0 .111.699 11 11 0 0 0 .135.625q.147.588.425 1.095a3.3 3.3 0 0 0 .509.686 4 4 0 0 0 .259.245q.458.425 1.029.621a5 5 0 0 0 .405.118q.2.048.379.066a2 2 0 0 0 .213.012q.195 0 .422-.081l.003-.001q.224-.08.323-.082h.004q.113 0 .213.171l.032.058q.114.229.114.294a.7.7 0 0 1-.054.251 1 1 0 0 1-.077.141q-.131.196-.31.359t-.392.278a1 1 0 0 1-.137.064q-.13.05-.238.05a4 4 0 0 1-.418-.029q-.435-.056-1.003-.216a4 4 0 0 1-.692-.267 2.8 2.8 0 0 1-.697-.501 6 6 0 0 1-.731-.908 7 7 0 0 1-.249-.415 8 8 0 0 1-.268-.536q-.255-.555-.539-1.34l-.14-.395q-.359 1.438-.833 2.843a7.4 7.4 0 0 1-1.423 2.471l-.097.111q-.065.065-.196.065a.6.6 0 0 1-.203-.042q-.138-.056-.287-.186-.158-.137-.22-.275a.5.5 0 0 1-.041-.183q0-.222-.046-1.012l-.003-.05-.053-.882-.062-.98q-.065-1.029-.114-2.092l-.021-.507q-.026-.678-.028-1.172v-.069q0-.292.026-.755l.007-.111q.033-.539.196-.931l.022-.034q.041-.055.147-.157l.076-.071q.212-.196.474-.196a.3.3 0 0 1 .121.027q.101.054.132.213l.009.054q.033.294.033.654Zm-33.203.033v.98a1 1 0 0 0 .197.125 1 1 0 0 0 .146.055 1.5 1.5 0 0 1 .232.083 1 1 0 0 1 .095.048.55.55 0 0 1 .21.21l.019.036a.6.6 0 0 1 .041.114q.04.156.04.408a3 3 0 0 1-.007.204q-.008.095-.022.181l-.004.024a2 2 0 0 0-.029.235l-.004.109q0 .85.131 1.667a4 4 0 0 0 .265.952 4 4 0 0 0 .258.503 3.1 3.1 0 0 0 .993.993l.086.053a2.6 2.6 0 0 0 .674.276q.315.083.688.114a6 6 0 0 0 .468.018q1.411 0 2.397-.582l.037-.022a9 9 0 0 0 .967-.68 7 7 0 0 0 .7-.66q.513-.563.863-1.05a8 8 0 0 0 .199-.29q.392-.605.654-.605a.6.6 0 0 1 .168.021q.257.073.257.404a1.7 1.7 0 0 1-.063.437q-.122.449-.476 1.017a6.7 6.7 0 0 1-.726.959 10 10 0 0 1-.729.724 8.7 8.7 0 0 1-1.681 1.166 10 10 0 0 1-.443.223q-1.209.572-2.516.572a4 4 0 0 1-.761-.077 5 5 0 0 1-.481-.119 5.5 5.5 0 0 1-1.197-.526l-.078-.046q-.621-.376-1.111-.915t-.719-1.225q-.163.163-.383.507l-.091.147q-.278.458-.605.931a5 5 0 0 1-.481.59 4 4 0 0 1-.238.227 1.5 1.5 0 0 1-.299.21 1.1 1.1 0 0 1-.518.134.74.74 0 0 1-.545-.237 1.3 1.3 0 0 1-.158-.204 4 4 0 0 1-.387-.814l-.054-.166q-.163-.539-.229-1.029l-.015-.116q-.047-.363-.05-.433v-.007a3 3 0 0 1 .012-.222q.041-.427.216-1.265a14 14 0 0 1 .41-1.508 16 16 0 0 1 .276-.763 8.7 8.7 0 0 1 .784-1.556 8 8 0 0 1 .376-.535 3 3 0 0 1 .487-.502 1.83 1.83 0 0 1 1.163-.413q.359 0 .474.31a2 2 0 0 1 .095.363 2 2 0 0 1 .019.241Zm164.444 0v.98a1 1 0 0 0 .197.125 1 1 0 0 0 .146.055 1.5 1.5 0 0 1 .232.083 1 1 0 0 1 .095.048.55.55 0 0 1 .21.21l.019.036a.6.6 0 0 1 .041.114q.04.156.04.408a3 3 0 0 1-.007.204q-.008.095-.022.181l-.004.024a2 2 0 0 0-.029.235l-.004.109q0 .85.131 1.667a4 4 0 0 0 .265.952 4 4 0 0 0 .258.503 3.1 3.1 0 0 0 .993.993l.086.053a2.6 2.6 0 0 0 .674.276q.315.083.688.114a6 6 0 0 0 .468.018q1.411 0 2.397-.582l.037-.022a9 9 0 0 0 .967-.68 7 7 0 0 0 .7-.66q.513-.563.863-1.05a8 8 0 0 0 .199-.29q.392-.605.654-.605a.6.6 0 0 1 .168.021q.257.073.257.404a1.7 1.7 0 0 1-.063.437q-.122.449-.476 1.017a6.7 6.7 0 0 1-.726.959 10 10 0 0 1-.729.724 8.7 8.7 0 0 1-1.681 1.166 10 10 0 0 1-.443.223q-1.209.572-2.516.572a4 4 0 0 1-.761-.077 5 5 0 0 1-.481-.119 5.5 5.5 0 0 1-1.197-.526l-.078-.046q-.621-.376-1.111-.915t-.719-1.225q-.163.163-.383.507l-.091.147q-.278.458-.605.931a5 5 0 0 1-.481.59 4 4 0 0 1-.238.227 1.5 1.5 0 0 1-.299.21 1.1 1.1 0 0 1-.518.134.74.74 0 0 1-.545-.237 1.3 1.3 0 0 1-.158-.204 4 4 0 0 1-.387-.814l-.054-.166q-.163-.539-.229-1.029l-.015-.116q-.047-.363-.05-.433v-.007a3 3 0 0 1 .012-.222q.041-.427.216-1.265a14 14 0 0 1 .41-1.508 16 16 0 0 1 .276-.763 8.7 8.7 0 0 1 .784-1.556 8 8 0 0 1 .376-.535 3 3 0 0 1 .487-.502 1.83 1.83 0 0 1 1.163-.413q.359 0 .474.31a2 2 0 0 1 .095.363 2 2 0 0 1 .019.241Zm-99.084 5.914.05-.043q.342-.303.342-.578a.3.3 0 0 0-.045-.156q-.06-.096-.2-.171-.245-.131-.539-.131h-.016q-.121.002-.252.037a2 2 0 0 0-.222.078l-.274.123-.298.138q-.31.147-.654.261a2 2 0 0 1-.178.051 2.4 2.4 0 0 1-.557.063.4.4 0 0 1-.148-.027q-.082-.031-.158-.094a1 1 0 0 1-.119-.124 3 3 0 0 1-.101-.135 3 3 0 0 1-.242-.421l-.079-.173a5 5 0 0 1-.166-.432q-.077-.23-.093-.34l-.005-.052q0-.08.021-.397l.012-.159.017-.261a26 26 0 0 0 .032-.703 24 24 0 0 1 .02-.486 18 18 0 0 1 .029-.445l.004-.047q.025-.33.028-.396l.001-.014v-.019q-.002-.051-.01-.148l-.007-.078a2 2 0 0 0-.021-.149 2 2 0 0 0-.061-.227q-.065-.196-.212-.343l-.036-.032q-.087-.07-.207-.098a1 1 0 0 0-.166-.017h-.039q-.62.006-.81.18-.196.18-.196.376 0 .176.044.27a.2.2 0 0 0 .054.073.2.2 0 0 1 .029.03q.069.088.069.281 0 .049-.01.154l-.007.075q-.016.163-.049.359l-.015.1a5 5 0 0 0-.034.276q-.013.146-.015.195l-.001.017-.002.065q-.009.165-.058.51l-.038.258a11 11 0 0 1-.087.487 13 13 0 0 1-.207.853 7 7 0 0 1-.178.544 5 5 0 0 1-.329.698q-.139.242-.302.376a.67.67 0 0 1-.433.163.2.2 0 0 1-.078-.016q-.2-.084-.445-.588-.294-.605-.556-1.389l-.064-.195a18 18 0 0 1-.377-1.341l-.025-.107q-.113-.489-.144-.767a2 2 0 0 1-.011-.172q0-.359-.163-.67-.119-.226-.393-.287a1 1 0 0 0-.228-.023.3.3 0 0 0-.066.008q-.082.018-.194.075a2 2 0 0 0-.115.064.7.7 0 0 0-.118.089.38.38 0 0 0-.127.286l.004.118q.018.308.121.894a26 26 0 0 0 .087.475 14 14 0 0 0 .154.701 17 17 0 0 0 .467 1.571 11 11 0 0 0 .276.709 8.7 8.7 0 0 0 .754 1.382q.218.322.465.531a1.52 1.52 0 0 0 1.005.384h.007q.201-.002.395-.102a1.3 1.3 0 0 0 .235-.16 4 4 0 0 0 .153-.136 5 5 0 0 0 .435-.469l.017-.022q.266-.331.457-.615.147-.221.239-.332l.055-.061.03.029q.057.053.172.153l.092.08.066.056q.101.085.217.175a12 12 0 0 0 .256.194q.31.229.654.392t.637.163q.261 0 .801-.196t1.062-.474a6 6 0 0 0 .388-.225 5 5 0 0 0 .527-.38Zm-47.914-6.641.006-.059q0-.359-.392-.572-.294-.16-.459-.199a.4.4 0 0 0-.096-.013q-.137 0-.253.029a.7.7 0 0 0-.27.135q-.196.163-.31.392t-.147.49q-.02.163-.028.301a3 3 0 0 0-.005.157q0 .261-.049.948t-.131 1.438-.147 1.422-.098.899l-.017.128q-.015.111-.037.237l-.044.256q-.047.261-.112.402a.5.5 0 0 1-.051.088q-.752-.621-1.127-1.487a29 29 0 0 1-.268-.638 24 24 0 0 1-.385-1.012q-.174-.49-.347-.891a9 9 0 0 0-.209-.449q-.078-.157-.173-.268a.75.75 0 0 0-.595-.287q-.074 0-.193.064l-.085.05q-.097.062-.142.129a.2.2 0 0 0-.037.116q0 1.046.261 2.059t.752 1.944 1.176 1.716 1.503 1.373q.359.261.654.261.327 0 .49-.245t.245-.539l.037-.146a3 3 0 0 0 .062-.426l.002-.035q.012-.198.013-.277l.001-.032a40 40 0 0 1 .006-.717q.02-1.118.104-1.894a9 9 0 0 1 .103-.705l.093-.483q.096-.5.161-.855l.056-.311.011-.061q.079-.456.158-.865a34 34 0 0 1 .159-.774l.045-.21q.092-.435.112-.582Zm80.627 4.386q0 .719-.196 1.373a5 5 0 0 1-.262.683 4 4 0 0 1-.26.46 3 3 0 0 1-.404.484 2.3 2.3 0 0 1-.364.284q-.441.278-.964.278a2.6 2.6 0 0 1-.595-.064 1.73 1.73 0 0 1-.843-.458q-.523-.523-.801-1.209t-.359-1.389l-.036-.33q-.035-.35-.043-.589l-.003-.143a5 5 0 0 1 .039-.583q.037-.295.111-.619l.029-.121a7 7 0 0 1 .343-1.039 6 6 0 0 1 .147-.317q.31-.621.703-1.046.274-.297.564-.386a1 1 0 0 1 .253-.038q.098 0 .31.065a2 2 0 0 1 .244.094 3 3 0 0 1 .197.102q.229.131.408.327t.245.458a1.4 1.4 0 0 1 .449.117 2 2 0 0 1 .27.144q.309.197.377.321a.2.2 0 0 1 .015.038q.261.85.343 1.699a23 23 0 0 1 .046.55q.018.245.027.459a10 10 0 0 1 .009.396Zm-48.007 2.451-.024-.058q-.063-.143-.28-.57l-.105-.206q-.376-.735-.948-1.601a9.4 9.4 0 0 0-1.23-1.509l-.044-.043q-.438-.429-.858-.589a1.4 1.4 0 0 0-.498-.097.72.72 0 0 0-.506.216q-.223.212-.393.633-.343.85-.343 1.961a3.5 3.5 0 0 0 .104.862 2.5 2.5 0 0 0 .631 1.131q.735.752 1.65.752.784 0 1.634-.261a6 6 0 0 0 .439-.155q.435-.177.687-.39a1 1 0 0 0 .083-.076ZM20.85 15.098q0-.131-.065-.245a1 1 0 0 1-.039-.083q-.018-.047-.023-.09l-.003-.039a.5.5 0 0 1 .018-.128.4.4 0 0 1 .047-.101.4.4 0 0 0 .047-.106q.012-.047.016-.103l.002-.053a.2.2 0 0 0-.007-.059.15.15 0 0 0-.059-.088q-.065-.049-.065-.114a.6.6 0 0 0-.202.093q-.154.108-.311.328a3 3 0 0 0-.091.135q-.31.49-.588 1.144t-.441 1.324a8 8 0 0 0-.087.395q-.072.381-.077.66v.039q0 .229.131.752a4 4 0 0 0 .065.233q.105.33.229.454a66 66 0 0 0 .787-1.679l.242-.543a5.8 5.8 0 0 0 .389-1.236 5 5 0 0 0 .085-.888Zm164.444 0q0-.131-.065-.245a1 1 0 0 1-.039-.083q-.018-.047-.023-.09l-.003-.039a.5.5 0 0 1 .018-.128.4.4 0 0 1 .047-.101.4.4 0 0 0 .047-.106q.012-.047.016-.103l.002-.053a.2.2 0 0 0-.007-.059.15.15 0 0 0-.059-.088q-.065-.049-.065-.114a.6.6 0 0 0-.202.093q-.154.108-.311.328a3 3 0 0 0-.091.135q-.31.49-.588 1.144t-.441 1.324a8 8 0 0 0-.087.395q-.072.381-.077.66v.039q0 .229.131.752a4 4 0 0 0 .065.233q.105.33.229.454a66 66 0 0 0 .787-1.679l.242-.543a5.8 5.8 0 0 0 .389-1.236 5 5 0 0 0 .085-.888Zm-67.092.588a6 6 0 0 0-.046-.697 7 7 0 0 0-.052-.333 3.6 3.6 0 0 0-.213-.715 5 5 0 0 0-.179-.38.3.3 0 0 1-.068.023q-.033.008-.069.009l-.026.001-.084-.004q-.042-.004-.077-.012l-.052-.016-.062-.02q-.032-.009-.06-.012l-.026-.001a1.2 1.2 0 0 0-.259.027q-.185.041-.319.148l-.043.037a1.3 1.3 0 0 0-.26.353 2 2 0 0 0-.084.203 3 3 0 0 0-.132.59l-.015.145q-.033.392-.033.752t.033.801a4 4 0 0 0 .101.659 4 4 0 0 0 .046.174q.114.392.31.67a.7.7 0 0 0 .173.175q.151.103.35.103a.58.58 0 0 0 .403-.162q.079-.071.148-.174l.005-.007a2.6 2.6 0 0 0 .253-.486 3 3 0 0 0 .107-.314 6 6 0 0 0 .164-.775l.015-.124.021-.206q.025-.255.028-.399z" vector-effect="non-scaling-stroke" stroke-linecap="round" fill-rule="evenodd" font-size="12" stroke="#f1f1f1" stroke-width=".037" fill="#f1f1f1" style="stroke:#f1f1f1;stroke-width:.01mm;fill:#f1f1f1"/></svg>