<svg width="201.536" height="24.48" xmlns="http://www.w3.org/2000/svg"><path d="m2.496 16.832-.864-2.592q-.288-.832-.576-1.712T.528 10.88q-.184-.588-.311-1.063a17.094 17.094 0 0 1-.073-.281 11.961 11.961 0 0 1-.056-.234q-.073-.316-.085-.474A.753.753 0 0 1 0 8.768a2.793 2.793 0 0 1 .068-.605 3.179 3.179 0 0 1 .028-.115q.096-.368.352-.368.16 0 .224.08a.328.328 0 0 0 .034.037q.019.017.038.028A.116.116 0 0 0 .8 7.84l.384-.16q.16 0 .56.4t.928 1.04q.528.64 1.136 1.44.608.8 1.232 1.568t1.184 1.44a12.917 12.917 0 0 0 .388.446q.187.205.36.372a5.77 5.77 0 0 0 .26.238q.704.64 1.408 1.216t1.424 1.168q.72.592 1.52 1.264t1.76 1.536a.071.071 0 0 0 .023.015q.038.015.119.017a.942.942 0 0 0 .018 0 .046.046 0 0 0 .041-.025q.021-.035.023-.117a.734.734 0 0 0 0-.018v-.384a2.67 2.67 0 0 0-.015-.259q-.047-.472-.241-1.357a28.608 28.608 0 0 0-.221-.93q-.209-.82-.499-1.79-.464-1.552-1.072-3.328-.608-1.776-1.296-3.424a31.816 31.816 0 0 0-.84-1.85 25.462 25.462 0 0 0-.6-1.142 15.371 15.371 0 0 0-.511-.852q-.264-.407-.522-.736a6.597 6.597 0 0 0-.423-.492.819.819 0 0 1-.145-.203q-.082-.155-.127-.373a4.863 4.863 0 0 1-.046-.249q-.018-.118-.026-.221a2.05 2.05 0 0 1-.008-.17.407.407 0 0 1 .041-.171q.059-.129.205-.271a1.811 1.811 0 0 1 .058-.054 1.553 1.553 0 0 1 .167-.131q.209-.141.393-.141a.5.5 0 0 1 .253.077q.277.163.597.67a4.962 4.962 0 0 1 .014.021 11.017 11.017 0 0 1 .365.634q.178.333.364.723a24.433 24.433 0 0 1 .295.643q.544 1.232 1.104 2.768.56 1.536 1.104 3.104.64 1.856 1.2 3.664.56 1.808.992 3.376a65.341 65.341 0 0 1 .37 1.4q.166.659.297 1.249a38.008 38.008 0 0 1 .037.167q.224 1.029.307 1.688a7.744 7.744 0 0 1 .029.264.694.694 0 0 1-.149.427 1.036 1.036 0 0 1-.139.149q-.288.256-.64.256-.049 0-.134-.046a1.056 1.056 0 0 1-.058-.034 1.83 1.83 0 0 1-.074-.048q-.069-.049-.112-.09a.502.502 0 0 1-.006-.006q-1.344-1.28-2.848-2.528-1.504-1.248-3.04-2.56t-3.024-2.752q-1.488-1.44-2.8-3.136.416 1.728 1.12 3.664.704 1.936 1.36 3.632l.819 2.113a931.144 931.144 0 0 0 .317.815 23.974 23.974 0 0 1 .163.43q.317.862.317 1.122 0 .384-.304.624a1.242 1.242 0 0 1-.245.153.891.891 0 0 1-.379.087q-.187 0-.403-.378a2.423 2.423 0 0 1-.013-.022q-.224-.4-.496-1.04t-.544-1.424q-.272-.784-.528-1.568l-.48-1.472q-.2-.615-.324-1.039a17.93 17.93 0 0 1-.028-.097Zm101.184.32.544-.832q.572-.88 1.038-1.616a104.465 104.465 0 0 0 .402-.64q.608-.976.992-1.92t.56-1.936a10.632 10.632 0 0 0 .12-.929q.042-.478.053-1.012a18.573 18.573 0 0 0 .003-.363q0-.352-.08-.768a2.889 2.889 0 0 0-.142-.5 2.458 2.458 0 0 0-.114-.252 2.041 2.041 0 0 0-.25-.375 1.745 1.745 0 0 0-.182-.185.898.898 0 0 0-.495-.215 1.199 1.199 0 0 0-.145-.009q-.418 0-1.188.192a14.617 14.617 0 0 0-.364.096q-1.04.288-2.128.768a14.072 14.072 0 0 0-1.405.713 12.095 12.095 0 0 0-.579.359 4.556 4.556 0 0 0-.448.334q-.446.381-.605.769a1.251 1.251 0 0 0-.035.097q-.032.064-.096.16t-.128.096q-.192 0-.408-.259a1.796 1.796 0 0 1-.072-.093 2.007 2.007 0 0 1-.124-.19q-.116-.206-.13-.373a.539.539 0 0 1-.002-.045q0-.53.434-1.034a2.685 2.685 0 0 1 .078-.086 4.873 4.873 0 0 1 .652-.574 6.509 6.509 0 0 1 .644-.418q.784-.448 1.744-.816.96-.368 1.856-.608.837-.224 1.52-.364a18.568 18.568 0 0 1 .096-.02q.543-.109.858-.135a2.183 2.183 0 0 1 .182-.009q.512 0 .976.288a2.552 2.552 0 0 1 .764.738 2.924 2.924 0 0 1 .02.03q.32.48.512 1.12.192.64.192 1.344a14.845 14.845 0 0 1-.095 1.722q-.107.913-.334 1.703a8.815 8.815 0 0 1-.067.223q-.496 1.568-1.12 2.768-.624 1.2-1.216 2.144a7.113 7.113 0 0 0-.441.811q-.206.447-.314.875a4.283 4.283 0 0 0-.029.122 1.025 1.025 0 0 1-.11.262q-.192.314-.594.314a.412.412 0 0 1-.033-.001q-.034-.003-.055-.012a.099.099 0 0 1-.008-.003.119.119 0 0 0-.023-.008q-.025-.007-.061-.008a.476.476 0 0 0-.012 0 5.669 5.669 0 0 0 .219.466q.187.358.453.766.448.688.896 1.392a16.169 16.169 0 0 1 .563.953 13.811 13.811 0 0 1 .221.423 4.284 4.284 0 0 1 .177.401q.078.207.118.392a1.714 1.714 0 0 1 .041.359.433.433 0 0 1-.068.228q-.083.135-.265.266a1.585 1.585 0 0 1-.003.002 1.831 1.831 0 0 1-.192.121q-.218.118-.397.119a.565.565 0 0 1-.003 0q-.128 0-.192-.16a7.117 7.117 0 0 0-.411-1.096q-.23-.496-.55-1.017a12.741 12.741 0 0 0-.223-.351q-.864-1.312-1.776-2.944a20.725 20.725 0 0 1-1.034-2.143 25.877 25.877 0 0 1-.582-1.537 12.701 12.701 0 0 1-.579-2.55 16.761 16.761 0 0 1-.125-2.09q0-1.088.112-1.84.052-.35.198-.537a.549.549 0 0 1 .458-.215.831.831 0 0 1 .164.015q.092.019.161.06a.382.382 0 0 1 .123.117q.128.192.128.416 0 2.605.435 4.646a15.432 15.432 0 0 0 .109.474q.528 2.145 1.178 3.354a6.685 6.685 0 0 0 .038.07Zm59.675 2.398a1.624 1.624 0 0 0 .005-.126.692.692 0 0 0-.003-.062q-.005-.064-.023-.115a.296.296 0 0 0-.102-.143q-.128-.096-.288-.096-.096 0-.496.032a121.074 121.074 0 0 0-.266.022l-.694.058a29.971 29.971 0 0 1-.431.034 36.529 36.529 0 0 1-.769.046q-.64.032-1.184.032-.608 0-1.232-.144t-1.12-.4a2.719 2.719 0 0 1-.208-.119 2.239 2.239 0 0 1-.592-.537 1.452 1.452 0 0 1-.218-.407 1.635 1.635 0 0 1-.086-.537q0-1.504.544-2.736a13.098 13.098 0 0 1 .501-1.017 10.082 10.082 0 0 1 .715-1.127q.672-.912 1.216-1.472a8.846 8.846 0 0 0 .014-.014q.53-.548.53-.738a.386.386 0 0 0-.02-.123q-.049-.147-.22-.261a.64.64 0 0 0-.123-.062q-.25-.098-.725-.098a.867.867 0 0 0-.287.051q-.136.048-.277.139a2.09 2.09 0 0 0-.252.194 4.157 4.157 0 0 0-.091.084q-.387.364-.773.908-.432.608-.832 1.36a29.095 29.095 0 0 0-.201.385 25.188 25.188 0 0 0-.519 1.071q-.32.704-.512 1.312-.138.437-.193.725a2.302 2.302 0 0 0-.031.203 6.051 6.051 0 0 1-.094-.21q-.102-.24-.199-.521a11.597 11.597 0 0 1-.187-.597q-.224-.784-.416-1.648-.192-.864-.368-1.712t-.304-1.552a.092.092 0 0 0-.001-.01q-.01-.072-.111-.55-.112-.528-.256-1.12a12.659 12.659 0 0 0-.122-.465 10.169 10.169 0 0 0-.198-.623q-.176-.496-.336-.496a.608.608 0 0 0-.028.001q-.236.011-.372.207a1.204 1.204 0 0 0-.01.014q-.137.204-.214.498-.08.304-.096.624a18.523 18.523 0 0 0-.007.143q-.009.222-.009.369a1.866 1.866 0 0 0 0 .014q.002.313.108.945a21.386 21.386 0 0 0 .084.465 31.195 31.195 0 0 0 .057.289q.18.901.455 2.015.32 1.296.704 2.72.384 1.424.736 2.672.224.768.384 1.408l.304 1.216q.144.576.336 1.136.192.56.48 1.2a1.355 1.355 0 0 0 .008.02q.057.146.131.231a.376.376 0 0 0 .101.085q.144.08.304.08.352 0 .432-.112a.414.414 0 0 0 .064-.138.532.532 0 0 0 .016-.134q-.064-.672-.192-1.344t-.288-1.344q.154.176.437.314a2.705 2.705 0 0 0 .283.118q.496.176 1.104.32.608.144 1.264.208t1.2.064a5.688 5.688 0 0 0 .438-.018 7.407 7.407 0 0 0 .538-.062q.528-.08 1.04-.192t.944-.224a16.517 16.517 0 0 0 .256-.068l.228-.066a7.8 7.8 0 0 0 .236-.074q.173-.043.258-.108a.23.23 0 0 0 .062-.068.318.318 0 0 0 .02-.044q.03-.076.039-.198Zm12.736 0a1.624 1.624 0 0 0 .005-.126.692.692 0 0 0-.003-.062q-.005-.064-.023-.115a.296.296 0 0 0-.102-.143q-.128-.096-.288-.096-.096 0-.496.032a121.074 121.074 0 0 0-.266.022l-.694.058a29.971 29.971 0 0 1-.431.034 36.529 36.529 0 0 1-.769.046q-.64.032-1.184.032-.608 0-1.232-.144t-1.12-.4a2.719 2.719 0 0 1-.208-.119 2.239 2.239 0 0 1-.592-.537 1.452 1.452 0 0 1-.218-.407 1.635 1.635 0 0 1-.086-.537q0-1.504.544-2.736a13.098 13.098 0 0 1 .501-1.017 10.082 10.082 0 0 1 .715-1.127q.672-.912 1.216-1.472a8.846 8.846 0 0 0 .014-.014q.53-.548.53-.738a.386.386 0 0 0-.02-.123q-.049-.147-.22-.261a.64.64 0 0 0-.123-.062q-.25-.098-.725-.098a.867.867 0 0 0-.287.051q-.136.048-.277.139a2.09 2.09 0 0 0-.252.194 4.157 4.157 0 0 0-.091.084q-.387.364-.773.908-.432.608-.832 1.36a29.095 29.095 0 0 0-.201.385 25.188 25.188 0 0 0-.519 1.071q-.32.704-.512 1.312-.138.437-.193.725a2.302 2.302 0 0 0-.031.203 6.051 6.051 0 0 1-.094-.21q-.102-.24-.199-.521a11.597 11.597 0 0 1-.187-.597q-.224-.784-.416-1.648-.192-.864-.368-1.712t-.304-1.552a.092.092 0 0 0-.001-.01q-.01-.072-.111-.55-.112-.528-.256-1.12a12.659 12.659 0 0 0-.122-.465 10.169 10.169 0 0 0-.198-.623q-.176-.496-.336-.496a.608.608 0 0 0-.028.001q-.236.011-.372.207a1.204 1.204 0 0 0-.01.014q-.137.204-.214.498-.08.304-.096.624a18.523 18.523 0 0 0-.007.143q-.009.222-.009.369a1.866 1.866 0 0 0 0 .014q.002.313.108.945a21.386 21.386 0 0 0 .084.465 31.195 31.195 0 0 0 .057.289q.18.901.455 2.015.32 1.296.704 2.72.384 1.424.736 2.672.224.768.384 1.408l.304 1.216q.144.576.336 1.136.192.56.48 1.2a1.355 1.355 0 0 0 .008.02q.057.146.131.231a.376.376 0 0 0 .101.085q.144.08.304.08.352 0 .432-.112a.414.414 0 0 0 .064-.138.532.532 0 0 0 .016-.134q-.064-.672-.192-1.344t-.288-1.344q.154.176.437.314a2.705 2.705 0 0 0 .283.118q.496.176 1.104.32.608.144 1.264.208t1.2.064a5.688 5.688 0 0 0 .438-.018 7.407 7.407 0 0 0 .538-.062q.528-.08 1.04-.192t.944-.224a16.517 16.517 0 0 0 .256-.068l.228-.066a7.8 7.8 0 0 0 .236-.074q.173-.043.258-.108a.23.23 0 0 0 .062-.068.318.318 0 0 0 .02-.044q.03-.076.039-.198ZM127.712 9.328a7.368 7.368 0 0 0 .325-.207q.536-.364.859-.737a.959.959 0 0 1-.056-.097 1.238 1.238 0 0 1-.056-.127.174.174 0 0 0-.076-.092q-.062-.036-.164-.036a.21.21 0 0 0-.046.007q-.13.032-.526.201a20.414 20.414 0 0 0-.148.064q-.624.272-1.392.624-.768.352-1.472.656a20.522 20.522 0 0 1-.048.021q-.496.212-.777.301a2.037 2.037 0 0 1-.167.046 13.211 13.211 0 0 1-.191-.601q-.096-.328-.194-.711a32.093 32.093 0 0 1-.207-.864 106.203 106.203 0 0 1-.086-.386q-.132-.589-.271-1.247a181.184 181.184 0 0 1-.299-1.439 1.165 1.165 0 0 0-.031-.121q-.112-.359-.417-.359a.464.464 0 0 0-.275.091.692.692 0 0 0-.125.117q-.124.146-.16.395a1.571 1.571 0 0 0-.016.229.135.135 0 0 0 0 .01q.008.101.144.886.144.832.304 1.824.192 1.152.48 2.624l-.528.256q-.528.256-1.312.64t-1.696.864q-.912.48-1.696.928a25.536 25.536 0 0 0-.353.206q-.555.328-.959.61-.394.275-.494.451a.225.225 0 0 0-.034.109.896.896 0 0 0 .072.356 1.049 1.049 0 0 0 .184.284.826.826 0 0 0 .349.237.974.974 0 0 0 .323.051q.078 0 .399-.18a9.285 9.285 0 0 0 .161-.092q.464-.272 1.104-.672.64-.4 1.376-.864.736-.464 1.408-.864a31.973 31.973 0 0 1 .186-.11q.275-.161.524-.299a17.991 17.991 0 0 1 .49-.263q.528-.272.752-.272.032 0 .16.448.288 1.056.512 1.952.192.768.384 1.504t.256 1.088q.138.828.177 1.375a5.492 5.492 0 0 1 .015.385q0 .16-.016.288-.016.128-.016.192a.395.395 0 0 0 .003.047q.011.091.061.241.064.192.192.4a2.225 2.225 0 0 0 .041.064 1.963 1.963 0 0 0 .247.304.648.648 0 0 0 .087.074.454.454 0 0 0 .265.086q.352 0 .512-.512.16-.512.16-.992 0-.032-.064-.432a183.477 183.477 0 0 1-.018-.115l-.059-.37a312.602 312.602 0 0 1-.067-.427q-.08-.512-.176-1.024-.096-.512-.16-.832-.128-.544-.32-1.248t-.368-1.36l-.201-.751a584.386 584.386 0 0 1-.103-.385 16.631 16.631 0 0 1-.034-.13q-.094-.364-.094-.446 0-.079.395-.28a7.258 7.258 0 0 1 .181-.088 49.264 49.264 0 0 0 .379-.181q.437-.211.965-.475.768-.384 1.536-.848Zm10.208 0a7.368 7.368 0 0 0 .325-.207q.536-.364.859-.737a.959.959 0 0 1-.056-.097 1.238 1.238 0 0 1-.056-.127.174.174 0 0 0-.076-.092q-.062-.036-.164-.036a.21.21 0 0 0-.046.007q-.13.032-.526.201a20.414 20.414 0 0 0-.148.064q-.624.272-1.392.624-.768.352-1.472.656a20.522 20.522 0 0 1-.048.021q-.496.212-.777.301a2.037 2.037 0 0 1-.167.046 13.211 13.211 0 0 1-.191-.601q-.096-.328-.194-.711a32.093 32.093 0 0 1-.207-.864 106.203 106.203 0 0 1-.086-.386q-.132-.589-.271-1.247a181.184 181.184 0 0 1-.299-1.439 1.165 1.165 0 0 0-.031-.121q-.112-.359-.417-.359a.464.464 0 0 0-.275.091.692.692 0 0 0-.125.117q-.124.146-.16.395a1.571 1.571 0 0 0-.016.229.135.135 0 0 0 0 .01q.008.101.144.886.144.832.304 1.824.192 1.152.48 2.624l-.528.256q-.528.256-1.312.64t-1.696.864q-.912.48-1.696.928a25.536 25.536 0 0 0-.353.206q-.555.328-.959.61-.394.275-.494.451a.225.225 0 0 0-.034.109.896.896 0 0 0 .072.356 1.049 1.049 0 0 0 .184.284.826.826 0 0 0 .349.237.974.974 0 0 0 .323.051q.078 0 .399-.18a9.285 9.285 0 0 0 .161-.092q.464-.272 1.104-.672.64-.4 1.376-.864.736-.464 1.408-.864a31.973 31.973 0 0 1 .186-.11q.275-.161.524-.299a17.991 17.991 0 0 1 .49-.263q.528-.272.752-.272.032 0 .16.448.288 1.056.512 1.952.192.768.384 1.504t.256 1.088q.138.828.177 1.375a5.492 5.492 0 0 1 .015.385q0 .16-.016.288-.016.128-.016.192a.395.395 0 0 0 .003.047q.011.091.061.241.064.192.192.4a2.225 2.225 0 0 0 .041.064 1.963 1.963 0 0 0 .247.304.648.648 0 0 0 .087.074.454.454 0 0 0 .265.086q.352 0 .512-.512.16-.512.16-.992 0-.032-.064-.432a183.477 183.477 0 0 1-.018-.115l-.059-.37a312.602 312.602 0 0 1-.067-.427q-.08-.512-.176-1.024-.096-.512-.16-.832-.128-.544-.32-1.248t-.368-1.36l-.201-.751a584.386 584.386 0 0 1-.103-.385 16.631 16.631 0 0 1-.034-.13q-.094-.364-.094-.446 0-.079.395-.28a7.258 7.258 0 0 1 .181-.088 49.264 49.264 0 0 0 .379-.181q.437-.211.965-.475.768-.384 1.536-.848Zm62.432 0a7.368 7.368 0 0 0 .325-.207q.536-.364.859-.737a.959.959 0 0 1-.056-.097 1.238 1.238 0 0 1-.056-.127.174.174 0 0 0-.076-.092q-.062-.036-.164-.036a.21.21 0 0 0-.046.007q-.13.032-.526.201a20.414 20.414 0 0 0-.148.064q-.624.272-1.392.624-.768.352-1.472.656a20.522 20.522 0 0 1-.048.021q-.496.212-.777.301a2.037 2.037 0 0 1-.167.046 13.211 13.211 0 0 1-.191-.601q-.096-.328-.194-.711a32.093 32.093 0 0 1-.207-.864 106.203 106.203 0 0 1-.086-.386q-.132-.589-.271-1.247a181.184 181.184 0 0 1-.299-1.439 1.165 1.165 0 0 0-.031-.121q-.112-.359-.417-.359a.464.464 0 0 0-.275.091.692.692 0 0 0-.125.117q-.124.146-.16.395a1.571 1.571 0 0 0-.016.229.135.135 0 0 0 0 .01q.008.101.144.886.144.832.304 1.824.192 1.152.48 2.624l-.528.256q-.528.256-1.312.64t-1.696.864q-.912.48-1.696.928a25.536 25.536 0 0 0-.353.206q-.555.328-.959.61-.394.275-.494.451a.225.225 0 0 0-.034.109.896.896 0 0 0 .072.356 1.049 1.049 0 0 0 .184.284.826.826 0 0 0 .349.237.974.974 0 0 0 .323.051q.078 0 .399-.18a9.285 9.285 0 0 0 .161-.092q.464-.272 1.104-.672.64-.4 1.376-.864.736-.464 1.408-.864a31.973 31.973 0 0 1 .186-.11q.275-.161.524-.299a17.991 17.991 0 0 1 .49-.263q.528-.272.752-.272.032 0 .16.448.288 1.056.512 1.952.192.768.384 1.504t.256 1.088q.138.828.177 1.375a5.492 5.492 0 0 1 .015.385q0 .16-.016.288-.016.128-.016.192a.395.395 0 0 0 .003.047q.011.091.061.241.064.192.192.4a2.225 2.225 0 0 0 .041.064 1.963 1.963 0 0 0 .247.304.648.648 0 0 0 .087.074.454.454 0 0 0 .265.086q.352 0 .512-.512.16-.512.16-.992 0-.032-.064-.432a183.477 183.477 0 0 1-.018-.115l-.059-.37a312.602 312.602 0 0 1-.067-.427q-.08-.512-.176-1.024-.096-.512-.16-.832-.128-.544-.32-1.248t-.368-1.36l-.201-.751a584.386 584.386 0 0 1-.103-.385 16.631 16.631 0 0 1-.034-.13q-.094-.364-.094-.446 0-.079.395-.28a7.258 7.258 0 0 1 .181-.088 49.264 49.264 0 0 0 .379-.181q.437-.211.965-.475.768-.384 1.536-.848ZM72.544 17.696q0 .16-.144.304a.757.757 0 0 0-.097.117q-.06.091-.079.187 0 .352.144.672.134.298.143.706a2.705 2.705 0 0 1 .001.062q0 .278-.114.37a.218.218 0 0 1-.142.046q-.265 0-.409.055a.42.42 0 0 0-.055.025q-.115.064-.363.118a4.056 4.056 0 0 1-.133.026.263.263 0 0 1-.133-.04q-.096-.056-.2-.192a1.727 1.727 0 0 1-.083-.12q-.128-.16-.224-.384 0-.032-.176.128-.153.139-.475.315a6.07 6.07 0 0 1-.101.053 3.292 3.292 0 0 1-.309.139q-.327.13-.779.245a4.917 4.917 0 0 1-.568.107q-.516.069-1.176.069a3.39 3.39 0 0 1-.838-.1 2.739 2.739 0 0 1-.73-.3q-.672-.4-1.104-1.04a4.499 4.499 0 0 1-.554-1.156 5.245 5.245 0 0 1-.086-.3q-.208-.816-.208-1.648a6.007 6.007 0 0 1 .107-1.151 5.391 5.391 0 0 1 .069-.305 4.914 4.914 0 0 1 .244-.723 3.984 3.984 0 0 1 .252-.493q.32-.528.8-.848a1.909 1.909 0 0 1 .895-.31 2.4 2.4 0 0 1 .225-.01q.608 0 1.216.384a7.569 7.569 0 0 1 .832.605 6.627 6.627 0 0 1 .256.227q.368.343.632.639a6.097 6.097 0 0 1 .152.177l.304.368q-.448-2.494-.799-4.508a116.338 116.338 0 0 0-.001-.004q-.16-.864-.304-1.712a93.189 93.189 0 0 0-.131-.756q-.064-.356-.124-.674a55.967 55.967 0 0 0-.017-.09q-.088-.462-.153-.826a45.449 45.449 0 0 1-.055-.31q-.08-.464-.08-.56-.026-.158-.053-.522a21.36 21.36 0 0 1-.011-.166q-.032-.496-.064-1.04t-.064-.992q-.027-.381-.054-.531a.725.725 0 0 0-.01-.045l-.24-.8q-.144-.48-.144-.544 0-.144.13-.354a1.732 1.732 0 0 1 .03-.046.617.617 0 0 1 .118-.134.452.452 0 0 1 .298-.106 2.006 2.006 0 0 1 .203.01 1.571 1.571 0 0 1 .149.022.432.432 0 0 1 .182.086q.056.043.106.106a.915.915 0 0 1 .078.117q.085.148.162.379a3.406 3.406 0 0 1 .068.237q.074.289.14.707a5.239 5.239 0 0 0 .022.182q.036.266.117.731a55.882 55.882 0 0 0 .053.303q.16.896.32 1.952t.32 2.016q.16.96.224 1.408.16 1.216.432 2.64.272 1.424.56 2.736.288 1.312.576 2.32a14.645 14.645 0 0 0 .136.45q.199.621.364.891a1.232 1.232 0 0 0 .012.019.289.289 0 0 0 .108.116q.043.027.098.046a.648.648 0 0 0 .05.014.444.444 0 0 1 .117.046.32.32 0 0 1 .139.162Zm-22.56 1.984a.951.951 0 0 0 0-.024q-.003-.11-.032-.168-.021-.064-.078-.127a.678.678 0 0 0-.066-.065.574.574 0 0 0-.056-.043q-.035-.023-.068-.036a.228.228 0 0 0-.084-.017q-.078 0-.336.137a5.975 5.975 0 0 0-.128.071q-.368.208-.864.448-.496.24-1.056.448-.56.208-1.04.208-.672 0-1.312-.256t-1.12-.72a3.357 3.357 0 0 1-.322-.36 3.865 3.865 0 0 1-.462-.776 3.288 3.288 0 0 1-.208-.619 3.934 3.934 0 0 1-.096-.885 7.244 7.244 0 0 1 .02-.547 6.04 6.04 0 0 1 .236-1.293 7.318 7.318 0 0 1 .258-.722 5.487 5.487 0 0 1 .382-.75 6.286 6.286 0 0 1 .106-.166q.335-.508.694-.826.267-.236.494-.32a.694.694 0 0 1 .242-.048 3.851 3.851 0 0 1 .01 0q.695.002.854.256a5.209 5.209 0 0 1 .009.014q.151.244.151.306a1.2 1.2 0 0 1-.008.14.914.914 0 0 1-.392.66 4.37 4.37 0 0 1-.063.045 4.726 4.726 0 0 1-.817.451q-.48.208-.88.464a1.057 1.057 0 0 0-.128.096.774.774 0 0 0-.272.608.834.834 0 0 0 .005.097.633.633 0 0 0 .139.335.592.592 0 0 0 .073.075.395.395 0 0 0 .263.101 1.062 1.062 0 0 0 .104-.005q.225-.022.535-.136a4.927 4.927 0 0 0 .321-.131 6.403 6.403 0 0 0 .418-.206 7.574 7.574 0 0 0 .798-.498 6.308 6.308 0 0 0 .328-.249 5.325 5.325 0 0 0 .712-.695 2.586 2.586 0 0 0 .134-.172q.298-.421.298-.82a1.371 1.371 0 0 0-.068-.425 1.695 1.695 0 0 0-.188-.391 2.472 2.472 0 0 0-.242-.317 2.969 2.969 0 0 0-.446-.403 3.932 3.932 0 0 0-.027-.02 4.183 4.183 0 0 0-.933-.508q-.528-.208-1.04-.208-.378 0-.77.207a2.723 2.723 0 0 0-.414.273 3.52 3.52 0 0 0-.064.052q-.57.472-1.04 1.26-.496.832-.816 1.92a7.527 7.527 0 0 0-.169.696 8.629 8.629 0 0 0-.151 1.64q0 1.312.352 2.288a6.415 6.415 0 0 0 .352.806 4.739 4.739 0 0 0 .544.826 4.261 4.261 0 0 0 .183.207 3.585 3.585 0 0 0 1.065.785 3.81 3.81 0 0 0 .05.023 3.297 3.297 0 0 0 1.39.313 9.579 9.579 0 0 0 .208-.002q.444-.01.837-.061a5.473 5.473 0 0 0 .795-.161q.784-.224 1.328-.512a6.414 6.414 0 0 0 .252-.141q.37-.217.612-.435.243-.218.356-.345a1.057 1.057 0 0 0 .06-.071 3.865 3.865 0 0 0 .019-.025q.195-.265.249-.435a.39.39 0 0 0 .02-.116Zm99.776 0a.951.951 0 0 0 0-.024q-.003-.11-.032-.168-.021-.064-.078-.127a.678.678 0 0 0-.066-.065.574.574 0 0 0-.056-.043q-.035-.023-.068-.036a.228.228 0 0 0-.084-.017q-.078 0-.336.137a5.975 5.975 0 0 0-.128.071q-.368.208-.864.448-.496.24-1.056.448-.56.208-1.04.208-.672 0-1.312-.256t-1.12-.72a3.357 3.357 0 0 1-.322-.36 3.865 3.865 0 0 1-.462-.776 3.288 3.288 0 0 1-.208-.619 3.934 3.934 0 0 1-.096-.885 7.244 7.244 0 0 1 .02-.547 6.04 6.04 0 0 1 .236-1.293 7.318 7.318 0 0 1 .258-.722 5.487 5.487 0 0 1 .382-.75 6.286 6.286 0 0 1 .106-.166q.335-.508.694-.826.267-.236.494-.32a.694.694 0 0 1 .242-.048 3.851 3.851 0 0 1 .01 0q.695.002.854.256a5.209 5.209 0 0 1 .009.014q.151.244.151.306a1.2 1.2 0 0 1-.008.14.914.914 0 0 1-.392.66 4.37 4.37 0 0 1-.063.045 4.726 4.726 0 0 1-.817.451q-.48.208-.88.464a1.057 1.057 0 0 0-.128.096.774.774 0 0 0-.272.608.834.834 0 0 0 .005.097.633.633 0 0 0 .139.335.592.592 0 0 0 .073.075.395.395 0 0 0 .263.101 1.062 1.062 0 0 0 .104-.005q.225-.022.535-.136a4.927 4.927 0 0 0 .321-.131 6.403 6.403 0 0 0 .418-.206 7.574 7.574 0 0 0 .798-.498 6.308 6.308 0 0 0 .328-.249 5.325 5.325 0 0 0 .712-.695 2.586 2.586 0 0 0 .134-.172q.298-.421.298-.82a1.371 1.371 0 0 0-.068-.425 1.695 1.695 0 0 0-.188-.391 2.472 2.472 0 0 0-.242-.317 2.969 2.969 0 0 0-.446-.403 3.932 3.932 0 0 0-.027-.02 4.183 4.183 0 0 0-.933-.508q-.528-.208-1.04-.208-.378 0-.77.207a2.723 2.723 0 0 0-.414.273 3.52 3.52 0 0 0-.064.052q-.57.472-1.04 1.26-.496.832-.816 1.92a7.527 7.527 0 0 0-.169.696 8.629 8.629 0 0 0-.151 1.64q0 1.312.352 2.288a6.415 6.415 0 0 0 .352.806 4.739 4.739 0 0 0 .544.826 4.261 4.261 0 0 0 .183.207 3.585 3.585 0 0 0 1.065.785 3.81 3.81 0 0 0 .05.023 3.297 3.297 0 0 0 1.39.313 9.579 9.579 0 0 0 .208-.002q.444-.01.837-.061a5.473 5.473 0 0 0 .795-.161q.784-.224 1.328-.512a6.414 6.414 0 0 0 .252-.141q.37-.217.612-.435.243-.218.356-.345a1.057 1.057 0 0 0 .06-.071 3.865 3.865 0 0 0 .019-.025q.195-.265.249-.435a.39.39 0 0 0 .02-.116Zm-96.096-7.36v5.056a1.493 1.493 0 0 0 .004.106q.008.107.029.251a5.771 5.771 0 0 0 .015.091q.042.253.122.383a.427.427 0 0 0 .022.033 10.946 10.946 0 0 0 .319-.78q.132-.357.255-.756a18.325 18.325 0 0 0 .082-.272q.304-1.04.592-1.984t.576-1.6q.264-.601.528-.651a.257.257 0 0 1 .048-.005q.32 0 .512.128t.32.512a54.783 54.783 0 0 1 .128.772q.055.353.1.669a31.22 31.22 0 0 1 .028.207q.096.72.24 1.296.144.576.416 1.072a3.166 3.166 0 0 0 .498.672 3.837 3.837 0 0 0 .254.24q.448.416 1.008.608a4.296 4.296 0 0 0 .396.116q.196.047.371.065a2.047 2.047 0 0 0 .209.011 1.069 1.069 0 0 0 .213-.023q.098-.019.203-.057a2.77 2.77 0 0 1 .101-.034q.146-.046.219-.046a.165.165 0 0 1 .098.034q.057.042.111.133a.934.934 0 0 1 .031.057q.089.177.107.254a.15.15 0 0 1 .005.034.622.622 0 0 1-.052.246.854.854 0 0 1-.076.138q-.128.192-.304.352-.176.16-.384.272a1.198 1.198 0 0 1-.134.063q-.07.027-.133.039a.531.531 0 0 1-.101.01q-.543 0-1.39-.239a9.245 9.245 0 0 1-.002-.001 3.685 3.685 0 0 1-.678-.262 2.69 2.69 0 0 1-.682-.49 5.496 5.496 0 0 1-.716-.889 6.558 6.558 0 0 1-.244-.407 7.844 7.844 0 0 1-.262-.525q-.31-.675-.666-1.699-.352 1.408-.816 2.784a7.252 7.252 0 0 1-1.393 2.42 8.297 8.297 0 0 1-.095.108q-.053.053-.15.062a.45.45 0 0 1-.042.002.527.527 0 0 1-.198-.041q-.077-.031-.156-.085a1.297 1.297 0 0 1-.126-.098 1.08 1.08 0 0 1-.124-.126q-.059-.072-.091-.143a.428.428 0 0 1-.041-.179 4.023 4.023 0 0 0-.002-.105q-.007-.272-.046-.935-.048-.816-.112-1.824t-.112-2.048q-.046-.988-.048-1.644a19.64 19.64 0 0 1 0-.068q0-.286.026-.739a27.125 27.125 0 0 1 .006-.109q.03-.489.169-.854a2.041 2.041 0 0 1 .023-.058q.026-.052.166-.186a5.015 5.015 0 0 1 .074-.07q.208-.192.464-.192a.25.25 0 0 1 .118.027q.1.052.13.208a.66.66 0 0 1 .008.053q.032.288.032.64Zm-32.512.032v.96a1.003 1.003 0 0 0 .193.123.846.846 0 0 0 .143.053q.176.048.32.128.144.08.224.24a.572.572 0 0 1 .04.112q.031.117.038.289a2.699 2.699 0 0 1 .002.111q0 .209-.028.376a1.634 1.634 0 0 1-.004.024 1.987 1.987 0 0 0-.029.229 1.683 1.683 0 0 0-.003.107q0 .832.128 1.632.128.8.512 1.424a3.015 3.015 0 0 0 .972.972 3.543 3.543 0 0 0 .084.052 2.562 2.562 0 0 0 .66.27q.308.081.673.112a5.514 5.514 0 0 0 .459.018 5.599 5.599 0 0 0 1.073-.098q.732-.142 1.311-.494a8.22 8.22 0 0 0 .947-.665 6.469 6.469 0 0 0 .685-.647 14.012 14.012 0 0 0 .454-.522q.346-.42.586-.79a3.593 3.593 0 0 1 .151-.216q.238-.315.42-.366a.253.253 0 0 1 .069-.01.599.599 0 0 1 .165.021q.184.053.233.241a.613.613 0 0 1 .018.154 1.643 1.643 0 0 1-.062.428q-.119.44-.466.996-.528.848-1.424 1.648a8.439 8.439 0 0 1-1.646 1.142 9.76 9.76 0 0 1-.434.218q-1.184.56-2.464.56-.576 0-1.216-.192a5.374 5.374 0 0 1-1.172-.515 5.992 5.992 0 0 1-.076-.045q-.608-.368-1.088-.896-.48-.528-.704-1.2a1.682 1.682 0 0 0-.114.128q-.154.19-.35.512-.272.448-.592.912a4.504 4.504 0 0 1-.47.578 3.898 3.898 0 0 1-.234.222 1.547 1.547 0 0 1-.292.205 1.071 1.071 0 0 1-.508.131.723.723 0 0 1-.533-.233 1.19 1.19 0 0 1-.155-.199 3.857 3.857 0 0 1-.379-.797 4.398 4.398 0 0 1-.053-.163q-.16-.528-.224-1.008-.061-.46-.064-.538a.187.187 0 0 1 0-.006 2.326 2.326 0 0 1 .012-.218q.031-.319.139-.875a25.43 25.43 0 0 1 .073-.363 13.302 13.302 0 0 1 .402-1.477 15.98 15.98 0 0 1 .27-.747 8.57 8.57 0 0 1 .768-1.524 7.553 7.553 0 0 1 .368-.524 2.745 2.745 0 0 1 .477-.491 1.801 1.801 0 0 1 1.139-.405.621.621 0 0 1 .179.024q.205.062.285.28a1.841 1.841 0 0 1 .094.355 1.548 1.548 0 0 1 .018.237Zm161.024 0v.96a1.003 1.003 0 0 0 .193.123.846.846 0 0 0 .143.053q.176.048.32.128.144.08.224.24a.572.572 0 0 1 .04.112q.031.117.038.289a2.699 2.699 0 0 1 .002.111q0 .209-.028.376a1.634 1.634 0 0 1-.004.024 1.987 1.987 0 0 0-.029.229 1.683 1.683 0 0 0-.003.107q0 .832.128 1.632.128.8.512 1.424a3.015 3.015 0 0 0 .972.972 3.543 3.543 0 0 0 .084.052 2.562 2.562 0 0 0 .66.27q.308.081.673.112a5.514 5.514 0 0 0 .459.018 5.599 5.599 0 0 0 1.073-.098q.732-.142 1.311-.494a8.22 8.22 0 0 0 .947-.665 6.469 6.469 0 0 0 .685-.647 14.012 14.012 0 0 0 .454-.522q.346-.42.586-.79a3.593 3.593 0 0 1 .151-.216q.238-.315.42-.366a.253.253 0 0 1 .069-.01.599.599 0 0 1 .165.021q.184.053.233.241a.613.613 0 0 1 .018.154 1.643 1.643 0 0 1-.062.428q-.119.44-.466.996-.528.848-1.424 1.648a8.439 8.439 0 0 1-1.646 1.142 9.76 9.76 0 0 1-.434.218q-1.184.56-2.464.56-.576 0-1.216-.192a5.374 5.374 0 0 1-1.172-.515 5.992 5.992 0 0 1-.076-.045q-.608-.368-1.088-.896-.48-.528-.704-1.2a1.682 1.682 0 0 0-.114.128q-.154.19-.35.512-.272.448-.592.912a4.504 4.504 0 0 1-.47.578 3.898 3.898 0 0 1-.234.222 1.547 1.547 0 0 1-.292.205 1.071 1.071 0 0 1-.508.131.723.723 0 0 1-.533-.233 1.19 1.19 0 0 1-.155-.199 3.857 3.857 0 0 1-.379-.797 4.398 4.398 0 0 1-.053-.163q-.16-.528-.224-1.008-.061-.46-.064-.538a.187.187 0 0 1 0-.006 2.326 2.326 0 0 1 .012-.218q.031-.319.139-.875a25.43 25.43 0 0 1 .073-.363 13.302 13.302 0 0 1 .402-1.477 15.98 15.98 0 0 1 .27-.747 8.57 8.57 0 0 1 .768-1.524 7.553 7.553 0 0 1 .368-.524 2.745 2.745 0 0 1 .477-.491 1.801 1.801 0 0 1 1.139-.405.621.621 0 0 1 .179.024q.205.062.285.28a1.841 1.841 0 0 1 .094.355 1.548 1.548 0 0 1 .018.237Zm-96.64 5.184q0 .288-.384.608a4.785 4.785 0 0 1-.516.372 5.992 5.992 0 0 1-.38.22q-.512.272-1.04.464t-.784.192q-.288 0-.624-.16t-.64-.384a11.328 11.328 0 0 1-.251-.19q-.113-.088-.212-.171a6.642 6.642 0 0 1-.065-.055q-.183-.157-.259-.228a1.262 1.262 0 0 1-.029-.028q-.093.093-.275.365a8.712 8.712 0 0 0-.013.019q-.186.279-.447.603a11.638 11.638 0 0 1-.017.021q-.272.336-.576.592-.301.254-.618.256a.8.8 0 0 1-.006 0q-.791 0-1.379-.81a3.266 3.266 0 0 1-.061-.086 8.247 8.247 0 0 1-.738-1.353 9.935 9.935 0 0 1-.27-.695 17.079 17.079 0 0 1-.457-1.538 14.48 14.48 0 0 1-.151-.686q-.208-1.072-.208-1.456a.378.378 0 0 1 .124-.281.641.641 0 0 1 .116-.087q.24-.144.368-.144a1.019 1.019 0 0 1 .223.023q.135.03.231.1a.521.521 0 0 1 .154.181q.16.304.16.656 0 .288.176 1.024a17.766 17.766 0 0 0 .369 1.313 19.672 19.672 0 0 0 .063.191q.256.768.544 1.36.24.494.436.576a.196.196 0 0 0 .076.016.655.655 0 0 0 .424-.16q.159-.131.296-.368a4.779 4.779 0 0 0 .322-.683 6.092 6.092 0 0 0 .174-.533q.192-.688.288-1.312a21.467 21.467 0 0 0 .037-.252q.048-.338.057-.5a1.198 1.198 0 0 0 .002-.064.361.361 0 0 1 .001-.017l.011-.143a17.83 17.83 0 0 1 .004-.048 4.807 4.807 0 0 1 .033-.27 5.553 5.553 0 0 1 .015-.098q.032-.192.048-.352a6.419 6.419 0 0 0 .007-.073q.008-.092.009-.14a.61.61 0 0 0 0-.011q0-.224-.096-.304a.203.203 0 0 1-.053-.071q-.032-.07-.04-.185a1.146 1.146 0 0 1-.003-.08q0-.192.192-.368.186-.171.793-.176a4.504 4.504 0 0 1 .039 0 .733.733 0 0 1 .163.017q.117.027.202.096a.452.452 0 0 1 .035.031q.144.144.208.336a1.777 1.777 0 0 1 .059.222 1.451 1.451 0 0 1 .021.146 8.523 8.523 0 0 1 .007.076q.009.115.009.164 0 .032-.032.448-.032.416-.048.912a25.285 25.285 0 0 1-.031.688 21.747 21.747 0 0 1-.017.256q-.03.419-.032.53a.802.802 0 0 0 0 .014.349.349 0 0 0 .005.051q.013.09.067.261a5.268 5.268 0 0 0 .024.072 5.08 5.08 0 0 0 .163.422 5.929 5.929 0 0 0 .077.17q.144.304.336.544.192.24.416.24a2.334 2.334 0 0 0 .546-.062 2.095 2.095 0 0 0 .174-.05q.336-.112.64-.256.304-.144.56-.256a1.467 1.467 0 0 1 .218-.077q.136-.035.262-.035.288 0 .528.128.137.073.196.167a.283.283 0 0 1 .044.153Zm-47.302-5.894a.477.477 0 0 0 .006-.058q0-.352-.384-.56-.384-.208-.544-.208-.135 0-.247.029a.661.661 0 0 0-.265.131q-.192.16-.304.384-.112.224-.144.48-.032.256-.032.448 0 .256-.048.928t-.128 1.408q-.08.736-.144 1.392-.05.513-.08.761a6.106 6.106 0 0 1-.016.119q-.032.256-.096.608a2.879 2.879 0 0 1-.032.152q-.054.23-.128.328-.736-.608-1.104-1.456a28.386 28.386 0 0 1-.262-.625 23.508 23.508 0 0 1-.378-.991q-.272-.768-.544-1.312a1.712 1.712 0 0 0-.005-.009q-.074-.147-.164-.254a.735.735 0 0 0-.583-.281.222.222 0 0 0-.049.006q-.088.02-.223.106-.095.061-.139.126a.203.203 0 0 0-.037.114q0 1.024.256 2.016t.736 1.904q.48.912 1.152 1.68.672.768 1.472 1.344a1.868 1.868 0 0 0 .176.114q.25.142.464.142.32 0 .48-.24.16-.24.24-.528.08-.288.096-.56a36.873 36.873 0 0 0 .002-.034q.011-.194.013-.271a1.122 1.122 0 0 0 .001-.031 39.921 39.921 0 0 1 .006-.702q.019-1.095.101-1.856a8.402 8.402 0 0 1 .101-.69 212.436 212.436 0 0 0 .091-.473q.14-.726.213-1.143a53.787 53.787 0 0 1 .01-.06q.155-.892.31-1.604a45.382 45.382 0 0 0 .044-.205q.091-.426.11-.569Zm78.95 4.294q0 .704-.192 1.344-.192.64-.512 1.12a2.755 2.755 0 0 1-.395.474 2.297 2.297 0 0 1-.357.278q-.432.272-.944.272a2.529 2.529 0 0 1-.583-.063 1.69 1.69 0 0 1-.825-.449q-.512-.512-.784-1.184-.272-.672-.352-1.36-.08-.688-.08-1.04a4.504 4.504 0 0 1 .039-.572q.044-.341.137-.724.176-.72.48-1.328.304-.608.688-1.024a1.665 1.665 0 0 1 .242-.219q.272-.197.558-.197a.446.446 0 0 1 .059.005q.092.012.245.059.208.064.432.192t.4.32q.176.192.24.448.352.032.704.256.303.193.369.315a.162.162 0 0 1 .015.037q.256.832.336 1.664a22.234 22.234 0 0 1 .046.538q.017.241.025.45a9.491 9.491 0 0 1 .009.388Zm-47.008 2.4a.712.712 0 0 0-.023-.056q-.077-.172-.377-.76a13.843 13.843 0 0 0-.402-.727q-.237-.404-.526-.841a9.23 9.23 0 0 0-1.205-1.478 8.594 8.594 0 0 0-.043-.042q-.43-.42-.84-.577a1.355 1.355 0 0 0-.488-.095q-.533 0-.867.8a3.123 3.123 0 0 0-.013.032 4.495 4.495 0 0 0-.272 1.017 6.064 6.064 0 0 0-.064.903 3.342 3.342 0 0 0 .101.845 2.43 2.43 0 0 0 .619 1.107 2.686 2.686 0 0 0 .589.463 2.044 2.044 0 0 0 1.027.273 5.121 5.121 0 0 0 1.085-.121 6.246 6.246 0 0 0 .515-.135 5.25 5.25 0 0 0 .43-.152q.427-.173.673-.382a1.33 1.33 0 0 0 .081-.074Zm-49.76-3.552q0-.128-.064-.24a.574.574 0 0 1-.039-.081q-.017-.046-.023-.089a.304.304 0 0 1-.002-.038.432.432 0 0 1 .018-.125.369.369 0 0 1 .046-.099q.053-.08.062-.204a.724.724 0 0 0 .002-.052q0-.096-.064-.144a.198.198 0 0 1-.034-.032.123.123 0 0 1-.03-.08q-.246.055-.503.412a2.679 2.679 0 0 0-.089.132q-.304.48-.576 1.12-.272.64-.432 1.296-.153.626-.16 1.034a2.249 2.249 0 0 0 0 .038q0 .224.128.736a3.767 3.767 0 0 0 .064.227q.103.324.224.445.544-1.12 1.008-2.176a5.58 5.58 0 0 0 .381-1.21 4.682 4.682 0 0 0 .083-.87Zm161.024 0q0-.128-.064-.24a.574.574 0 0 1-.039-.081q-.017-.046-.023-.089a.304.304 0 0 1-.002-.038.432.432 0 0 1 .018-.125.369.369 0 0 1 .046-.099q.053-.08.062-.204a.724.724 0 0 0 .002-.052q0-.096-.064-.144a.198.198 0 0 1-.034-.032.123.123 0 0 1-.03-.08q-.246.055-.503.412a2.679 2.679 0 0 0-.089.132q-.304.48-.576 1.12-.272.64-.432 1.296-.153.626-.16 1.034a2.249 2.249 0 0 0 0 .038q0 .224.128.736a3.767 3.767 0 0 0 .064.227q.103.324.224.445.544-1.12 1.008-2.176a5.58 5.58 0 0 0 .381-1.21 4.682 4.682 0 0 0 .083-.87Zm-65.696.576a5.351 5.351 0 0 0-.045-.683 6.345 6.345 0 0 0-.051-.325 3.46 3.46 0 0 0-.209-.7 4.292 4.292 0 0 0-.175-.372.282.282 0 0 1-.067.023q-.031.007-.068.008a.539.539 0 0 1-.025.001.841.841 0 0 1-.082-.004q-.041-.004-.075-.012a.371.371 0 0 1-.051-.016.52.52 0 0 0-.06-.02q-.031-.008-.059-.011a.276.276 0 0 0-.025-.001q-.349 0-.565.172a.709.709 0 0 0-.043.036 1.188 1.188 0 0 0-.254.345 1.533 1.533 0 0 0-.082.199 3.004 3.004 0 0 0-.129.578 3.444 3.444 0 0 0-.015.142q-.032.384-.032.736t.032.784a4.054 4.054 0 0 0 .099.646 3.619 3.619 0 0 0 .045.17q.112.384.304.656.19.269.506.272a.757.757 0 0 0 .006 0 .571.571 0 0 0 .395-.159q.077-.07.145-.17a1.214 1.214 0 0 0 .004-.007 2.573 2.573 0 0 0 .248-.476 3.219 3.219 0 0 0 .104-.308 5.433 5.433 0 0 0 .161-.758 4.92 4.92 0 0 0 .015-.122q.044-.398.048-.592a1.774 1.774 0 0 0 0-.032Zm-45.093 4.283a.005.005 0 0 1 .004.001" vector-effect="non-scaling-stroke" stroke-linecap="round" fill-rule="evenodd" font-size="12" stroke="#f1f1f1" stroke-width=".945" fill="#f1f1f1" style="stroke:#f1f1f1;stroke-width:.25mm;fill:#f1f1f1"/></svg>