<svg width="205.817" height="25" xmlns="http://www.w3.org/2000/svg" viewBox="0 0 205.817 25"><path d="m2.549 17.19-.882-2.647q-.294-.85-.588-1.748t-.54-1.684q-.188-.6-.318-1.086l-.075-.287-.057-.239q-.075-.323-.087-.484L0 8.954a3 3 0 0 1 .069-.618l.029-.117q.098-.376.359-.376.163 0 .229.082l.035.038q.019.017.039.029a.1.1 0 0 0 .057.015l.392-.163q.163 0 .572.408t.948 1.062 1.16 1.471 1.258 1.601 1.209 1.471a13 13 0 0 0 .396.455q.191.209.368.38a6 6 0 0 0 .266.243q.719.654 1.438 1.242t1.454 1.193 1.552 1.291 1.797 1.569l.023.015q.039.015.122.017h.018a.05.05 0 0 0 .042-.026q.021-.036.023-.119v-.411a3 3 0 0 0-.015-.265q-.048-.482-.246-1.386a30 30 0 0 0-.226-.95q-.213-.837-.51-1.828-.474-1.585-1.095-3.399t-1.324-3.497a33 33 0 0 0-.858-1.889 27 27 0 0 0-.613-1.166 15 15 0 0 0-.522-.87q-.27-.416-.533-.752a7 7 0 0 0-.432-.502.8.8 0 0 1-.148-.207q-.084-.158-.13-.381a5 5 0 0 1-.047-.254q-.018-.121-.027-.226a2 2 0 0 1-.008-.174.4.4 0 0 1 .042-.175q.06-.132.209-.277l.059-.055a2 2 0 0 1 .171-.134q.213-.144.401-.144a.5.5 0 0 1 .258.079q.283.166.61.684l.014.021a11 11 0 0 1 .373.647q.182.34.372.738a25 25 0 0 1 .301.657q.556 1.258 1.127 2.827t1.127 3.17q.654 1.895 1.225 3.742t1.013 3.448a66 66 0 0 1 .378 1.43q.17.673.303 1.276l.038.171q.229 1.051.314 1.724a8 8 0 0 1 .03.27.7.7 0 0 1-.152.436 1 1 0 0 1-.142.152q-.294.261-.654.261-.05 0-.137-.047l-.059-.035-.076-.049q-.07-.05-.114-.092l-.006-.006q-1.373-1.307-2.908-2.582t-3.105-2.614-3.088-2.81-2.859-3.203q.425 1.765 1.144 3.742t1.389 3.709l.836 2.158.324.832a25 25 0 0 1 .166.439q.324.88.324 1.146 0 .392-.31.637a1.2 1.2 0 0 1-.25.156.9.9 0 0 1-.387.089q-.191 0-.412-.386l-.013-.022q-.229-.408-.507-1.062t-.556-1.454-.539-1.601l-.49-1.503q-.204-.628-.331-1.061zm103.333.327.556-.85q.584-.899 1.06-1.65l.411-.654q.621-.997 1.013-1.961t.572-1.977a11 11 0 0 0 .123-.949q.043-.488.054-1.033l.003-.371q0-.359-.082-.784a3 3 0 0 0-.145-.511 3 3 0 0 0-.116-.257 2 2 0 0 0-.255-.383 2 2 0 0 0-.186-.189.9.9 0 0 0-.506-.22 1 1 0 0 0-.148-.009q-.427 0-1.213.196a15 15 0 0 0-.372.098q-1.062.294-2.173.784a14 14 0 0 0-1.435.728 12 12 0 0 0-.591.367 5 5 0 0 0-.458.341q-.455.389-.618.785a1 1 0 0 0-.036.099q-.033.065-.098.163t-.131.098q-.196 0-.417-.265l-.074-.095a2 2 0 0 1-.127-.194q-.118-.21-.133-.381l-.002-.046q0-.541.443-1.056l.08-.088a5 5 0 0 1 .666-.586 7 7 0 0 1 .658-.427q.801-.458 1.781-.833t1.895-.621q.855-.229 1.552-.372l.098-.02q.555-.111.876-.138a2 2 0 0 1 .186-.009q.523 0 .997.294a2.6 2.6 0 0 1 .78.754l.02.031q.327.49.523 1.144t.196 1.373a15 15 0 0 1-.097 1.759q-.109.932-.341 1.739l-.068.228q-.507 1.601-1.144 2.827t-1.242 2.19a7 7 0 0 0-.45.828q-.21.456-.321.894l-.03.125a1 1 0 0 1-.112.268q-.196.321-.607.321l-.034-.001q-.035-.003-.056-.012l-.008-.003-.023-.008q-.026-.007-.062-.008h-.012a6 6 0 0 0 .224.476q.191.366.463.782.458.703.915 1.422a16 16 0 0 1 .575.973 14 14 0 0 1 .226.432 4 4 0 0 1 .181.41q.08.211.121.4a1.7 1.7 0 0 1 .042.367.44.44 0 0 1-.069.233q-.085.138-.271.272l-.003.002a2 2 0 0 1-.196.124q-.223.121-.405.122h-.003q-.131 0-.196-.163a7 7 0 0 0-.42-1.119q-.235-.507-.562-1.039a13 13 0 0 0-.228-.358q-.882-1.34-1.814-3.007a22 22 0 0 1-1.056-2.189 27 27 0 0 1-.594-1.57 13 13 0 0 1-.591-2.604 17 17 0 0 1-.128-2.134q0-1.111.114-1.879.053-.357.202-.548a.56.56 0 0 1 .468-.22 1 1 0 0 1 .167.015q.094.019.164.061a.4.4 0 0 1 .126.119q.131.196.131.425 0 2.66.444 4.745a15 15 0 0 0 .111.484q.539 2.191 1.203 3.425zm60.943 2.449a2 2 0 0 0 .005-.129l-.003-.063q-.005-.065-.023-.117a.3.3 0 0 0-.104-.146q-.131-.098-.294-.098-.098 0-.507.033l-.272.022-.709.059-.44.035a38 38 0 0 1-.785.047q-.654.033-1.209.033-.621 0-1.258-.147t-1.144-.408a3 3 0 0 1-.212-.122 2.3 2.3 0 0 1-.605-.548 1.5 1.5 0 0 1-.223-.416 1.6 1.6 0 0 1-.088-.548q0-1.536.556-2.794a13 13 0 0 1 .512-1.039 10 10 0 0 1 .73-1.151q.686-.931 1.242-1.503l.014-.014q.541-.56.541-.754a.4.4 0 0 0-.02-.126q-.05-.15-.225-.267a.6.6 0 0 0-.126-.063q-.255-.1-.74-.1a1 1 0 0 0-.293.052q-.139.049-.283.142a2 2 0 0 0-.257.198l-.093.086q-.395.372-.789.927-.441.621-.85 1.389l-.205.393a26 26 0 0 0-.53 1.094q-.327.719-.523 1.34-.141.446-.197.74a2 2 0 0 0-.032.207 6 6 0 0 1-.096-.214q-.104-.245-.203-.532a12 12 0 0 1-.191-.61q-.229-.801-.425-1.683t-.376-1.748-.31-1.585l-.001-.01q-.01-.074-.113-.562-.114-.539-.261-1.144a13 13 0 0 0-.125-.475 10 10 0 0 0-.202-.636q-.18-.507-.343-.507l-.029.001q-.241.011-.38.211l-.01.014q-.14.208-.219.509-.082.31-.098.637l-.007.146q-.009.227-.009.377v.014q.002.32.11.965a22 22 0 0 0 .086.475l.058.295q.184.92.465 2.058.327 1.324.719 2.778t.752 2.729q.229.784.392 1.438l.31 1.242q.147.588.343 1.16t.49 1.225l.008.02q.058.149.134.236a.4.4 0 0 0 .103.087q.147.082.31.082.359 0 .441-.114a.4.4 0 0 0 .065-.141.5.5 0 0 0 .016-.137q-.065-.686-.196-1.373t-.294-1.373q.157.18.446.321a3 3 0 0 0 .289.121q.507.18 1.127.327t1.291.212 1.225.065a6 6 0 0 0 .447-.018 7 7 0 0 0 .549-.063q.539-.082 1.062-.196t.964-.229l.261-.069.233-.067.241-.076q.177-.044.263-.11a.2.2 0 0 0 .063-.069l.02-.045q.031-.078.04-.202Zm13.007 0a2 2 0 0 0 .005-.129l-.003-.063q-.005-.065-.023-.117a.3.3 0 0 0-.104-.146q-.131-.098-.294-.098-.098 0-.507.033l-.272.022-.709.059-.44.035a38 38 0 0 1-.785.047q-.654.033-1.209.033-.621 0-1.258-.147t-1.144-.408a3 3 0 0 1-.212-.122 2.3 2.3 0 0 1-.605-.548 1.5 1.5 0 0 1-.223-.416 1.6 1.6 0 0 1-.088-.548q0-1.536.556-2.794a13 13 0 0 1 .512-1.039 10 10 0 0 1 .73-1.151q.686-.931 1.242-1.503l.014-.014q.541-.56.541-.754a.4.4 0 0 0-.02-.126q-.05-.15-.225-.267a.6.6 0 0 0-.126-.063q-.255-.1-.74-.1a1 1 0 0 0-.293.052q-.139.049-.283.142a2 2 0 0 0-.257.198l-.093.086q-.395.372-.789.927-.441.621-.85 1.389l-.205.393a26 26 0 0 0-.53 1.094q-.327.719-.523 1.34-.141.446-.197.74a2 2 0 0 0-.032.207 6 6 0 0 1-.096-.214q-.104-.245-.203-.532a12 12 0 0 1-.191-.61q-.229-.801-.425-1.683t-.376-1.748-.31-1.585l-.001-.01q-.01-.074-.113-.562-.114-.539-.261-1.144a13 13 0 0 0-.125-.475 10 10 0 0 0-.202-.636q-.18-.507-.343-.507l-.029.001q-.241.011-.38.211l-.01.014q-.14.208-.219.509-.082.31-.098.637l-.007.146q-.009.227-.009.377v.014q.002.32.11.965a22 22 0 0 0 .086.475l.058.295q.184.92.465 2.058.327 1.324.719 2.778t.752 2.729q.229.784.392 1.438l.31 1.242q.147.588.343 1.16t.49 1.225l.008.02q.058.149.134.236a.4.4 0 0 0 .103.087q.147.082.31.082.359 0 .441-.114a.4.4 0 0 0 .065-.141.5.5 0 0 0 .016-.137q-.065-.686-.196-1.373t-.294-1.373q.157.18.446.321a3 3 0 0 0 .289.121q.507.18 1.127.327t1.291.212 1.225.065a6 6 0 0 0 .447-.018 7 7 0 0 0 .549-.063q.539-.082 1.062-.196t.964-.229l.261-.069.233-.067.241-.076q.177-.044.263-.11a.2.2 0 0 0 .063-.069l.02-.045q.031-.078.04-.202Zm-49.407-10.44a7 7 0 0 0 .332-.211q.547-.372.877-.753a1 1 0 0 1-.057-.099 1 1 0 0 1-.057-.13.17.17 0 0 0-.078-.094q-.063-.037-.167-.037a.2.2 0 0 0-.047.007q-.133.033-.537.205l-.151.065q-.637.278-1.422.637t-1.503.67l-.049.021q-.507.217-.794.307a2 2 0 0 1-.171.047 13 13 0 0 1-.195-.614q-.098-.335-.198-.726a33 33 0 0 1-.211-.882l-.088-.394q-.135-.602-.277-1.273a185 185 0 0 1-.305-1.47 1 1 0 0 0-.032-.124q-.114-.367-.426-.367a.47.47 0 0 0-.281.093.7.7 0 0 0-.128.119q-.127.149-.163.403a2 2 0 0 0-.016.234v.01q.008.103.147.905.147.85.31 1.863.196 1.176.49 2.68l-.539.261q-.539.261-1.34.654t-1.732.882-1.732.948l-.36.21q-.567.335-.979.623-.402.281-.504.461a.2.2 0 0 0-.035.111.9.9 0 0 0 .074.364 1 1 0 0 0 .188.29.8.8 0 0 0 .356.242 1 1 0 0 0 .33.052q.08 0 .407-.184l.164-.094q.474-.278 1.127-.686t1.405-.882 1.438-.882l.19-.112q.281-.164.535-.305a18 18 0 0 1 .5-.269q.539-.278.768-.278.033 0 .163.458.294 1.078.523 1.993.196.784.392 1.536t.261 1.111q.141.846.181 1.404a6 6 0 0 1 .015.393q0 .163-.016.294t-.016.196l.003.048q.011.093.062.246.065.196.196.408l.042.065a2 2 0 0 0 .252.31 1 1 0 0 0 .089.076.46.46 0 0 0 .271.088q.359 0 .523-.523t.163-1.013q0-.033-.065-.441l-.018-.117-.06-.378-.068-.436q-.082-.523-.18-1.046t-.163-.85q-.131-.556-.327-1.275t-.376-1.389l-.205-.767-.105-.393-.035-.133q-.096-.372-.096-.455 0-.081.403-.286l.185-.09.387-.185q.446-.215.985-.485.784-.392 1.569-.866Zm10.425 0a7 7 0 0 0 .332-.211q.547-.372.877-.753a1 1 0 0 1-.057-.099 1 1 0 0 1-.057-.13.17.17 0 0 0-.078-.094q-.063-.037-.167-.037a.2.2 0 0 0-.047.007q-.133.033-.537.205l-.151.065q-.637.278-1.422.637t-1.503.67l-.049.021q-.507.217-.794.307a2 2 0 0 1-.171.047 13 13 0 0 1-.195-.614q-.098-.335-.198-.726a33 33 0 0 1-.211-.882l-.088-.394q-.135-.602-.277-1.273a185 185 0 0 1-.305-1.47 1 1 0 0 0-.032-.124q-.114-.367-.426-.367a.47.47 0 0 0-.281.093.7.7 0 0 0-.128.119q-.127.149-.163.403a2 2 0 0 0-.016.234v.01q.008.103.147.905.147.85.31 1.863.196 1.176.49 2.68l-.539.261q-.539.261-1.34.654t-1.732.882-1.732.948l-.36.21q-.567.335-.979.623-.402.281-.504.461a.2.2 0 0 0-.035.111.9.9 0 0 0 .074.364 1 1 0 0 0 .188.29.8.8 0 0 0 .356.242 1 1 0 0 0 .33.052q.08 0 .407-.184l.164-.094q.474-.278 1.127-.686t1.405-.882 1.438-.882l.19-.112q.281-.164.535-.305a18 18 0 0 1 .5-.269q.539-.278.768-.278.033 0 .163.458.294 1.078.523 1.993.196.784.392 1.536t.261 1.111q.141.846.181 1.404a6 6 0 0 1 .015.393q0 .163-.016.294t-.016.196l.003.048q.011.093.062.246.065.196.196.408l.042.065a2 2 0 0 0 .252.31 1 1 0 0 0 .089.076.46.46 0 0 0 .271.088q.359 0 .523-.523t.163-1.013q0-.033-.065-.441l-.018-.117-.06-.378-.068-.436q-.082-.523-.18-1.046t-.163-.85q-.131-.556-.327-1.275t-.376-1.389l-.205-.767-.105-.393-.035-.133q-.096-.372-.096-.455 0-.081.403-.286l.185-.09.387-.185q.446-.215.985-.485.784-.392 1.569-.866Zm63.758 0a7 7 0 0 0 .332-.211q.547-.372.877-.753a1 1 0 0 1-.057-.099 1 1 0 0 1-.057-.13.17.17 0 0 0-.078-.094q-.063-.037-.167-.037a.2.2 0 0 0-.047.007q-.133.033-.537.205l-.151.065q-.637.278-1.422.637t-1.503.67l-.049.021q-.507.217-.794.307a2 2 0 0 1-.171.047 13 13 0 0 1-.195-.614q-.098-.335-.198-.726a33 33 0 0 1-.211-.882l-.088-.394q-.135-.602-.277-1.273a185 185 0 0 1-.305-1.47 1 1 0 0 0-.032-.124q-.114-.367-.426-.367a.47.47 0 0 0-.281.093.7.7 0 0 0-.128.119q-.127.149-.163.403a2 2 0 0 0-.016.234v.01q.008.103.147.905.147.85.31 1.863.196 1.176.49 2.68l-.539.261q-.539.261-1.34.654t-1.732.882-1.732.948l-.36.21q-.567.335-.979.623-.402.281-.504.461a.2.2 0 0 0-.035.111.9.9 0 0 0 .074.364 1 1 0 0 0 .188.29.8.8 0 0 0 .356.242 1 1 0 0 0 .33.052q.08 0 .407-.184l.164-.094q.474-.278 1.127-.686t1.405-.882 1.438-.882l.19-.112q.281-.164.535-.305a18 18 0 0 1 .5-.269q.539-.278.768-.278.033 0 .163.458.294 1.078.523 1.993.196.784.392 1.536t.261 1.111q.141.846.181 1.404a6 6 0 0 1 .015.393q0 .163-.016.294t-.016.196l.003.048q.011.093.062.246.065.196.196.408l.042.065a2 2 0 0 0 .252.31 1 1 0 0 0 .089.076.46.46 0 0 0 .271.088q.359 0 .523-.523t.163-1.013q0-.033-.065-.441l-.018-.117-.06-.378-.068-.436q-.082-.523-.18-1.046t-.163-.85q-.131-.556-.327-1.275t-.376-1.389l-.205-.767-.105-.393-.035-.133q-.096-.372-.096-.455 0-.081.403-.286l.185-.09.387-.185q.446-.215.985-.485.784-.392 1.569-.866ZM74.085 18.072q0 .163-.147.31a1 1 0 0 0-.099.119q-.061.093-.081.191 0 .359.147.686.137.304.146.721l.001.063q0 .284-.116.378a.23.23 0 0 1-.145.047q-.271 0-.418.056a.4.4 0 0 0-.056.026q-.117.065-.371.121l-.136.027a.3.3 0 0 1-.136-.041q-.098-.057-.204-.196a2 2 0 0 1-.085-.123q-.131-.163-.229-.392 0-.033-.18.131-.156.142-.485.322l-.103.054a3 3 0 0 1-.316.142q-.334.133-.796.25a5 5 0 0 1-.58.109q-.527.07-1.201.07a3.5 3.5 0 0 1-.856-.102 2.8 2.8 0 0 1-.746-.306q-.686-.408-1.127-1.062a4.6 4.6 0 0 1-.566-1.181 5 5 0 0 1-.088-.306q-.212-.833-.212-1.683a6 6 0 0 1 .109-1.175 5 5 0 0 1 .07-.311 5 5 0 0 1 .249-.738 4 4 0 0 1 .257-.503q.327-.539.817-.866a1.94 1.94 0 0 1 .914-.317 2 2 0 0 1 .23-.01q.621 0 1.242.392a8 8 0 0 1 .85.618 7 7 0 0 1 .261.232q.376.35.645.653a6 6 0 0 1 .155.181l.31.376q-.458-2.547-.816-4.604l-.001-.004q-.163-.882-.31-1.748l-.134-.772q-.065-.364-.127-.688l-.017-.092q-.09-.472-.156-.844l-.056-.317q-.082-.474-.082-.572-.027-.161-.054-.533l-.011-.17q-.033-.507-.065-1.062t-.065-1.013q-.028-.389-.055-.542l-.01-.046-.245-.817q-.147-.49-.147-.556 0-.147.133-.362l.031-.047a.6.6 0 0 1 .121-.137.46.46 0 0 1 .304-.108 2 2 0 0 1 .207.01 2 2 0 0 1 .152.022.4.4 0 0 1 .186.088q.057.044.108.108a1 1 0 0 1 .08.119q.087.151.165.387a3 3 0 0 1 .069.242q.076.295.143.722l.022.186q.037.272.119.747l.054.309q.163.915.327 1.993t.327 2.059.229 1.438q.163 1.242.441 2.696t.572 2.794.588 2.369a15 15 0 0 0 .139.46q.203.634.372.91l.012.019a.3.3 0 0 0 .11.118q.044.028.1.047l.051.014a.4.4 0 0 1 .119.047.33.33 0 0 1 .142.165Zm-23.039 2.026v-.025q-.003-.112-.033-.172-.021-.065-.08-.13a1 1 0 0 0-.067-.066l-.057-.044q-.036-.023-.069-.037a.2.2 0 0 0-.086-.017q-.08 0-.343.14l-.131.073q-.376.212-.882.458t-1.078.458-1.062.212q-.686 0-1.34-.261t-1.144-.735a3.5 3.5 0 0 1-.329-.368 4 4 0 0 1-.472-.792 3.4 3.4 0 0 1-.212-.632 4 4 0 0 1-.098-.904 7 7 0 0 1 .02-.559 6 6 0 0 1 .241-1.32 7 7 0 0 1 .263-.737 5.6 5.6 0 0 1 .39-.766l.108-.17q.342-.519.709-.844.273-.241.504-.327a.7.7 0 0 1 .247-.049h.01q.71.002.872.261l.009.014q.154.249.154.313a1 1 0 0 1-.008.143.93.93 0 0 1-.4.674l-.064.046a5 5 0 0 1-.834.461q-.49.212-.899.474a1 1 0 0 0-.131.098.79.79 0 0 0-.278.621 1 1 0 0 0 .005.099.64.64 0 0 0 .142.342 1 1 0 0 0 .075.077.4.4 0 0 0 .269.103 1 1 0 0 0 .106-.005q.23-.022.546-.139a5 5 0 0 0 .328-.134 6 6 0 0 0 .427-.21 8 8 0 0 0 .815-.509 6 6 0 0 0 .335-.254 5.4 5.4 0 0 0 .727-.71 3 3 0 0 0 .137-.176q.304-.43.304-.837a1.4 1.4 0 0 0-.069-.434 1.7 1.7 0 0 0-.192-.399 2.6 2.6 0 0 0-.247-.324 3 3 0 0 0-.455-.412l-.028-.02a4.3 4.3 0 0 0-.953-.519q-.539-.212-1.062-.212-.386 0-.786.211a3 3 0 0 0-.423.279l-.065.053q-.582.482-1.062 1.287-.507.85-.833 1.961a8 8 0 0 0-.173.711 9 9 0 0 0-.154 1.675q0 1.34.359 2.337a6.5 6.5 0 0 0 .359.823 4.8 4.8 0 0 0 .556.844 4 4 0 0 0 .187.211 3.7 3.7 0 0 0 1.088.802l.051.023a3.4 3.4 0 0 0 1.42.32l.212-.002q.453-.01.855-.062a6 6 0 0 0 .812-.164q.801-.229 1.356-.523a6 6 0 0 0 .257-.144q.378-.222.625-.444.248-.223.364-.352a1 1 0 0 0 .061-.073l.019-.026q.199-.271.254-.444a.4.4 0 0 0 .02-.118Zm101.895 0v-.025q-.003-.112-.033-.172-.021-.065-.08-.13a1 1 0 0 0-.067-.066l-.057-.044q-.036-.023-.069-.037a.2.2 0 0 0-.086-.017q-.08 0-.343.14l-.131.073q-.376.212-.882.458t-1.078.458-1.062.212q-.686 0-1.34-.261t-1.144-.735a3.5 3.5 0 0 1-.329-.368 4 4 0 0 1-.472-.792 3.4 3.4 0 0 1-.212-.632 4 4 0 0 1-.098-.904 7 7 0 0 1 .02-.559 6 6 0 0 1 .241-1.32 7 7 0 0 1 .263-.737 5.6 5.6 0 0 1 .39-.766l.108-.17q.342-.519.709-.844.273-.241.504-.327a.7.7 0 0 1 .247-.049h.01q.71.002.872.261l.009.014q.154.249.154.313a1 1 0 0 1-.008.143.93.93 0 0 1-.4.674l-.064.046a5 5 0 0 1-.834.461q-.49.212-.899.474a1 1 0 0 0-.131.098.79.79 0 0 0-.278.621 1 1 0 0 0 .005.099.64.64 0 0 0 .142.342 1 1 0 0 0 .075.077.4.4 0 0 0 .269.103 1 1 0 0 0 .106-.005q.23-.022.546-.139a5 5 0 0 0 .328-.134 6 6 0 0 0 .427-.21 8 8 0 0 0 .815-.509 6 6 0 0 0 .335-.254 5.4 5.4 0 0 0 .727-.71 3 3 0 0 0 .137-.176q.304-.43.304-.837a1.4 1.4 0 0 0-.069-.434 1.7 1.7 0 0 0-.192-.399 2.6 2.6 0 0 0-.247-.324 3 3 0 0 0-.455-.412l-.028-.02a4.3 4.3 0 0 0-.953-.519q-.539-.212-1.062-.212-.386 0-.786.211a3 3 0 0 0-.423.279l-.065.053q-.582.482-1.062 1.287-.507.85-.833 1.961a8 8 0 0 0-.173.711 9 9 0 0 0-.154 1.675q0 1.34.359 2.337a6.5 6.5 0 0 0 .359.823 4.8 4.8 0 0 0 .556.844 4 4 0 0 0 .187.211 3.7 3.7 0 0 0 1.088.802l.051.023a3.4 3.4 0 0 0 1.42.32l.212-.002q.453-.01.855-.062a6 6 0 0 0 .812-.164q.801-.229 1.356-.523a6 6 0 0 0 .257-.144q.378-.222.625-.444.248-.223.364-.352a1 1 0 0 0 .061-.073l.019-.026q.199-.271.254-.444a.4.4 0 0 0 .02-.118Zm-98.137-7.516v5.163l.004.108q.008.109.03.256l.015.093q.043.258.125.391l.022.034a11 11 0 0 0 .326-.797q.135-.365.26-.772l.084-.278q.31-1.062.605-2.026t.588-1.634q.27-.614.539-.665l.049-.005q.327 0 .523.131t.327.523a56 56 0 0 1 .131.788q.056.36.102.683l.029.211q.098.735.245 1.324t.424 1.096a3.3 3.3 0 0 0 .509.686 4 4 0 0 0 .259.245q.458.425 1.029.621a4 4 0 0 0 .404.118q.2.048.379.066a2 2 0 0 0 .213.011 1 1 0 0 0 .218-.023q.1-.019.207-.058l.103-.035q.149-.047.224-.047a.17.17 0 0 1 .1.035q.058.043.113.136l.032.058q.091.181.109.259l.005.035a.6.6 0 0 1-.053.251 1 1 0 0 1-.078.141q-.131.196-.31.359t-.392.278a1 1 0 0 1-.137.064q-.071.028-.136.04a.5.5 0 0 1-.103.01q-.555 0-1.42-.244l-.002-.001a4 4 0 0 1-.692-.268 2.8 2.8 0 0 1-.696-.5 5.6 5.6 0 0 1-.731-.908 7 7 0 0 1-.249-.416 8 8 0 0 1-.268-.536q-.317-.689-.68-1.735-.359 1.438-.833 2.843a7.5 7.5 0 0 1-1.423 2.471l-.097.11q-.054.054-.153.063l-.043.002a.5.5 0 0 1-.202-.042q-.079-.032-.159-.087a1 1 0 0 1-.129-.1 1 1 0 0 1-.127-.129q-.06-.074-.093-.146a.4.4 0 0 1-.042-.183l-.002-.107q-.007-.278-.047-.955-.049-.833-.114-1.863t-.114-2.092q-.047-1.009-.049-1.679v-.065q0-.292.027-.755l.006-.111q.031-.499.173-.872l.023-.059q.027-.053.17-.19l.076-.071q.212-.196.474-.196a.26.26 0 0 1 .121.028q.102.053.133.212l.008.054q.033.294.033.654Zm-33.203.033v.98a1 1 0 0 0 .197.126 1 1 0 0 0 .146.054q.18.049.327.131t.229.245a.6.6 0 0 1 .041.114q.032.119.039.295l.002.113q0 .213-.029.384l-.004.025a2 2 0 0 0-.03.234l-.003.109q0 .85.131 1.667t.523 1.454a3.1 3.1 0 0 0 .993.993l.086.053a2.7 2.7 0 0 0 .674.276q.315.083.687.114a6 6 0 0 0 .469.018 5.7 5.7 0 0 0 1.096-.1q.748-.145 1.339-.504a8 8 0 0 0 .967-.679 7 7 0 0 0 .7-.661 14 14 0 0 0 .464-.533q.353-.429.598-.807a4 4 0 0 1 .154-.221q.243-.322.429-.374a.3.3 0 0 1 .07-.01.6.6 0 0 1 .169.021q.188.054.238.246a.6.6 0 0 1 .018.157 1.6 1.6 0 0 1-.063.437q-.122.449-.476 1.017-.539.866-1.454 1.683a8.6 8.6 0 0 1-1.681 1.166 10 10 0 0 1-.443.223q-1.209.572-2.516.572-.588 0-1.242-.196a5.5 5.5 0 0 1-1.197-.526l-.078-.046q-.621-.376-1.111-.915t-.719-1.225a2 2 0 0 0-.116.131q-.157.194-.357.523-.278.458-.605.931a4.6 4.6 0 0 1-.48.59 4 4 0 0 1-.239.227 1.6 1.6 0 0 1-.298.209 1.1 1.1 0 0 1-.519.134.74.74 0 0 1-.544-.238 1.2 1.2 0 0 1-.158-.203 4 4 0 0 1-.387-.814l-.054-.166q-.163-.539-.229-1.029-.062-.47-.065-.549v-.006a2 2 0 0 1 .012-.223q.032-.326.142-.894l.075-.371a13 13 0 0 1 .411-1.508 16 16 0 0 1 .276-.763 9 9 0 0 1 .784-1.556 8 8 0 0 1 .376-.535 3 3 0 0 1 .487-.501 1.84 1.84 0 0 1 1.163-.414.6.6 0 0 1 .183.025q.209.063.291.286a2 2 0 0 1 .096.363 2 2 0 0 1 .018.242Zm164.444 0v.98a1 1 0 0 0 .197.126 1 1 0 0 0 .146.054q.18.049.327.131t.229.245a.6.6 0 0 1 .041.114q.032.119.039.295l.002.113q0 .213-.029.384l-.004.025a2 2 0 0 0-.03.234l-.003.109q0 .85.131 1.667t.523 1.454a3.1 3.1 0 0 0 .993.993l.086.053a2.7 2.7 0 0 0 .674.276q.315.083.687.114a6 6 0 0 0 .469.018 5.7 5.7 0 0 0 1.096-.1q.748-.145 1.339-.504a8 8 0 0 0 .967-.679 7 7 0 0 0 .7-.661 14 14 0 0 0 .464-.533q.353-.429.598-.807a4 4 0 0 1 .154-.221q.243-.322.429-.374a.3.3 0 0 1 .07-.01.6.6 0 0 1 .169.021q.188.054.238.246a.6.6 0 0 1 .018.157 1.6 1.6 0 0 1-.063.437q-.122.449-.476 1.017-.539.866-1.454 1.683a8.6 8.6 0 0 1-1.681 1.166 10 10 0 0 1-.443.223q-1.209.572-2.516.572-.588 0-1.242-.196a5.5 5.5 0 0 1-1.197-.526l-.078-.046q-.621-.376-1.111-.915t-.719-1.225a2 2 0 0 0-.116.131q-.157.194-.357.523-.278.458-.605.931a4.6 4.6 0 0 1-.48.59 4 4 0 0 1-.239.227 1.6 1.6 0 0 1-.298.209 1.1 1.1 0 0 1-.519.134.74.74 0 0 1-.544-.238 1.2 1.2 0 0 1-.158-.203 4 4 0 0 1-.387-.814l-.054-.166q-.163-.539-.229-1.029-.062-.47-.065-.549v-.006a2 2 0 0 1 .012-.223q.032-.326.142-.894l.075-.371a13 13 0 0 1 .411-1.508 16 16 0 0 1 .276-.763 9 9 0 0 1 .784-1.556 8 8 0 0 1 .376-.535 3 3 0 0 1 .487-.501 1.84 1.84 0 0 1 1.163-.414.6.6 0 0 1 .183.025q.209.063.291.286a2 2 0 0 1 .096.363 2 2 0 0 1 .018.242Zm-98.693 5.294q0 .294-.392.621a5 5 0 0 1-.527.38 6 6 0 0 1-.388.225q-.523.278-1.062.474t-.801.196q-.294 0-.637-.163t-.654-.392a11 11 0 0 1-.256-.194q-.115-.09-.217-.175l-.066-.056q-.187-.16-.265-.233l-.03-.029q-.095.095-.281.373l-.013.019q-.19.285-.456.616l-.017.021q-.278.343-.588.605-.307.259-.631.261h-.006q-.808 0-1.408-.827l-.062-.088a8.5 8.5 0 0 1-.754-1.382 10 10 0 0 1-.276-.71 17 17 0 0 1-.467-1.571 15 15 0 0 1-.154-.701q-.212-1.095-.212-1.487a.4.4 0 0 1 .127-.287.6.6 0 0 1 .118-.089q.245-.147.376-.147a1 1 0 0 1 .228.023q.138.031.236.102a.5.5 0 0 1 .157.185q.163.31.163.67 0 .294.18 1.046a18 18 0 0 0 .377 1.341l.064.195q.261.784.556 1.389.245.504.445.588a.2.2 0 0 0 .078.016.67.67 0 0 0 .433-.163q.162-.134.302-.376a5 5 0 0 0 .329-.698 6 6 0 0 0 .178-.544q.196-.703.294-1.34l.038-.257q.049-.345.058-.511l.002-.065.001-.017.011-.146.004-.049a5 5 0 0 1 .034-.276l.015-.1q.033-.196.049-.359l.007-.075q.008-.094.009-.143v-.011q0-.229-.098-.31a.2.2 0 0 1-.054-.073q-.033-.071-.041-.189l-.003-.082q0-.196.196-.376.19-.175.81-.18h.04a.7.7 0 0 1 .166.017q.119.028.206.098l.036.032q.147.147.212.343a2 2 0 0 1 .06.227 2 2 0 0 1 .021.149l.007.078q.009.117.009.167 0 .033-.033.458t-.049.931a26 26 0 0 1-.032.703l-.017.261q-.031.428-.033.541v.014l.005.052q.013.092.068.267l.025.074a5 5 0 0 0 .166.431l.079.174q.147.31.343.556t.425.245a2.4 2.4 0 0 0 .558-.063 2 2 0 0 0 .178-.051q.343-.114.654-.261t.572-.261a1.5 1.5 0 0 1 .223-.079q.139-.036.268-.036.294 0 .539.131.14.075.2.171a.3.3 0 0 1 .045.156ZM39.045 11.89l.006-.059q0-.359-.392-.572t-.556-.212q-.138 0-.252.03a.7.7 0 0 0-.271.134q-.196.163-.31.392t-.147.49-.033.458q0 .261-.049.948t-.131 1.438-.145 1.419q-.051.524-.082.777l-.016.122q-.033.261-.098.621a3 3 0 0 1-.033.155q-.055.235-.131.335-.752-.621-1.127-1.487a29 29 0 0 1-.268-.638 25 25 0 0 1-.386-1.012q-.278-.784-.556-1.34l-.005-.009q-.076-.15-.167-.259a.76.76 0 0 0-.595-.287.2.2 0 0 0-.05.006q-.09.02-.228.108-.097.062-.142.129a.2.2 0 0 0-.038.116q0 1.046.261 2.059t.752 1.944 1.176 1.716 1.503 1.373a2 2 0 0 0 .18.116q.255.145.474.145.327 0 .49-.245t.245-.539.098-.572l.002-.035q.011-.198.013-.277l.001-.032a41 41 0 0 1 .006-.717q.019-1.118.103-1.895a8 8 0 0 1 .103-.705l.093-.483q.143-.741.218-1.167l.01-.061q.158-.911.317-1.638l.045-.209q.093-.435.112-.581Zm80.627 4.385q0 .719-.196 1.373t-.523 1.144a3 3 0 0 1-.403.484 2.4 2.4 0 0 1-.365.284q-.441.278-.964.278a2.6 2.6 0 0 1-.595-.064 1.74 1.74 0 0 1-.843-.459q-.523-.523-.801-1.209t-.359-1.389-.082-1.062a5 5 0 0 1 .04-.584q.045-.348.14-.739.18-.735.49-1.356t.703-1.046a1.7 1.7 0 0 1 .247-.224q.278-.201.57-.201l.06.005q.094.012.25.06.212.065.441.196t.408.327.245.458q.359.033.719.261.309.197.377.322a.2.2 0 0 1 .015.038q.261.85.343 1.699a23 23 0 0 1 .047.549q.017.246.026.46a10 10 0 0 1 .009.396Zm-48.007 2.451-.023-.057q-.079-.176-.385-.776a14 14 0 0 0-.411-.742q-.242-.413-.537-.859a9.4 9.4 0 0 0-1.231-1.509l-.044-.043q-.439-.429-.858-.589a1.4 1.4 0 0 0-.498-.097q-.544 0-.885.817l-.013.033a4.6 4.6 0 0 0-.278 1.039 6 6 0 0 0-.065.922 3.4 3.4 0 0 0 .103.863 2.5 2.5 0 0 0 .632 1.131 2.8 2.8 0 0 0 .602.473 2.1 2.1 0 0 0 1.049.279 5 5 0 0 0 1.108-.124 6 6 0 0 0 .526-.138 5 5 0 0 0 .439-.155q.436-.177.687-.39a1 1 0 0 0 .083-.076Zm-50.817-3.627q0-.131-.065-.245a1 1 0 0 1-.04-.083q-.017-.047-.023-.091l-.002-.039a.4.4 0 0 1 .018-.128.4.4 0 0 1 .047-.101q.054-.082.063-.208l.002-.053q0-.098-.065-.147a.2.2 0 0 1-.035-.033.12.12 0 0 1-.031-.082q-.251.056-.514.421a3 3 0 0 0-.091.135q-.31.49-.588 1.144t-.441 1.324q-.156.639-.163 1.056v.039q0 .229.131.752a4 4 0 0 0 .065.232q.105.331.229.454.556-1.144 1.029-2.222a5.7 5.7 0 0 0 .389-1.236 5 5 0 0 0 .085-.888Zm164.444 0q0-.131-.065-.245a1 1 0 0 1-.04-.083q-.017-.047-.023-.091l-.002-.039a.4.4 0 0 1 .018-.128.4.4 0 0 1 .047-.101q.054-.082.063-.208l.002-.053q0-.098-.065-.147a.2.2 0 0 1-.035-.033.12.12 0 0 1-.031-.082q-.251.056-.514.421a3 3 0 0 0-.091.135q-.31.49-.588 1.144t-.441 1.324q-.156.639-.163 1.056v.039q0 .229.131.752a4 4 0 0 0 .065.232q.105.331.229.454.556-1.144 1.029-2.222a5.7 5.7 0 0 0 .389-1.236 5 5 0 0 0 .085-.888Zm-67.092.588a5 5 0 0 0-.046-.698 6 6 0 0 0-.052-.332 3.6 3.6 0 0 0-.213-.715 4 4 0 0 0-.179-.38.3.3 0 0 1-.068.023q-.032.007-.069.008l-.026.001-.084-.004q-.042-.004-.077-.012l-.052-.016-.061-.02q-.032-.008-.06-.011l-.026-.001q-.356 0-.577.176l-.044.037a1.2 1.2 0 0 0-.259.352 2 2 0 0 0-.084.203 3 3 0 0 0-.132.59l-.015.145q-.033.392-.033.752t.033.801a4 4 0 0 0 .101.66l.046.174q.114.392.31.67.194.275.517.278h.006a.58.58 0 0 0 .403-.162q.079-.071.148-.174l.004-.007a2.7 2.7 0 0 0 .253-.486 3 3 0 0 0 .106-.315 5.5 5.5 0 0 0 .164-.774l.015-.125q.045-.406.049-.605zm-46.051 4.374.004.001" vector-effect="non-scaling-stroke" stroke-linecap="round" fill-rule="evenodd" font-size="12" stroke="#f1f1f1" stroke-width=".965" fill="#f1f1f1" style="stroke:#f1f1f1;stroke-width:.25mm;fill:#f1f1f1"/></svg>